<?xml version="1.0" standalone="no"?>
<!DOCTYPE svg PUBLIC "-//W3C//DTD SVG 20010904//EN"
 "http://www.w3.org/TR/2001/REC-SVG-20010904/DTD/svg10.dtd">
<svg version="1.0" xmlns="http://www.w3.org/2000/svg"
 width="100%" height="100%" viewBox="0 0 1075.000000 1518.000000"
 preserveAspectRatio="xMidYMid meet">
<g transform="translate(0.000000,1518.000000) scale(0.100000,-0.100000)"
fill="#000000" stroke="none">
<path d="M3800 15150 c-69 -15 -159 -38 -200 -50 -128 -37 -384 -134 -513
-194 -43 -20 -81 -36 -84 -36 -17 0 -328 -159 -416 -212 -121 -74 -315 -205
-337 -228 -3 -3 -23 -19 -46 -35 -41 -30 -77 -60 -228 -189 -162 -137 -230
-203 -336 -326 -337 -388 -602 -799 -768 -1190 -66 -155 -78 -188 -125 -340
-57 -181 -76 -287 -84 -465 -6 -135 -5 -145 27 -270 40 -161 107 -333 209
-535 109 -217 284 -490 313 -490 6 0 7 -7 4 -16 -9 -23 -53 -301 -71 -446 -24
-199 -44 -451 -49 -623 -5 -184 -2 -158 19 155 33 484 88 855 195 1295 69 286
105 409 136 466 15 27 62 84 103 126 70 70 293 263 305 263 3 0 -4 -26 -15
-57 -11 -32 -27 -85 -35 -118 -8 -33 -29 -80 -47 -105 -28 -40 -32 -55 -38
-135 -3 -49 -20 -146 -37 -215 -26 -108 -50 -244 -37 -215 2 6 20 84 39 174
20 90 37 165 39 167 1 2 11 -70 21 -159 9 -89 33 -270 52 -402 19 -132 37
-260 40 -285 6 -42 2 -53 -66 -170 -82 -143 -236 -452 -309 -620 -28 -63 -51
-110 -51 -103 -1 64 174 1101 219 1293 6 25 10 56 10 70 -2 66 -148 -698 -194
-1015 -4 -22 -12 -80 -20 -130 -7 -49 -19 -134 -25 -188 -6 -54 -22 -128 -36
-163 -26 -70 -29 -109 -13 -167 7 -27 6 -81 -5 -200 -15 -160 -40 -501 -51
-707 -7 -133 -7 -854 0 -952 3 -40 10 -149 16 -243 8 -144 28 -356 55 -595 4
-30 23 -152 43 -270 37 -219 38 -231 17 -393 -3 -27 2 -16 13 28 l18 70 11
-40 c6 -22 18 -78 27 -125 39 -198 91 -419 147 -613 l39 -139 -35 -71 c-163
-339 -292 -810 -351 -1283 -14 -111 -29 -223 -34 -250 -39 -207 -93 -638 -115
-914 -19 -243 -39 -666 -34 -710 3 -19 6 3 7 50 1 81 15 315 26 445 2 33 7 96
10 140 6 80 11 147 20 240 7 72 46 403 50 423 1 10 11 75 21 145 9 70 18 126
19 124 1 -1 5 -96 9 -211 4 -115 9 -212 11 -216 3 -4 11 -54 19 -111 16 -112
51 -267 62 -278 4 -3 4 5 0 19 -93 358 -106 818 -36 1252 48 297 118 580 209
843 41 116 112 284 135 317 16 23 18 21 41 -52 56 -172 334 -774 390 -845 9
-11 -3 18 -25 63 -102 207 -201 488 -270 764 -56 224 -50 247 24 93 176 -370
291 -549 480 -743 39 -41 100 -96 134 -124 59 -47 63 -53 58 -82 -36 -174 -92
-539 -68 -441 l7 30 137 1 c76 0 141 -2 146 -5 9 -6 42 -134 36 -140 -1 -2
-25 13 -53 33 -34 25 -51 45 -54 64 l-4 27 -2 -26 c-1 -32 27 -59 139 -133 98
-65 358 -199 475 -244 153 -60 330 -105 545 -141 78 -13 352 -14 398 -1 44 11
92 45 92 63 0 7 -5 4 -11 -6 -16 -27 -63 -47 -131 -54 -35 -3 -61 -3 -58 0 56
66 136 147 146 147 7 0 29 -16 50 -35 36 -35 37 -36 32 -97 -8 -96 -215 -785
-241 -799 -6 -4 -21 -15 -32 -24 -15 -13 -16 -15 -3 -11 20 6 25 -5 49 -118
10 -48 28 -120 40 -160 38 -126 14 -253 -106 -556 -109 -273 -198 -702 -167
-801 6 -19 13 -68 17 -109 3 -41 8 -82 10 -90 2 -8 6 -37 10 -65 3 -27 10 -77
15 -110 34 -217 41 -263 46 -288 l6 -27 1319 0 1319 0 4 22 c3 13 10 102 16
198 13 198 4 279 -50 465 -16 54 -27 101 -25 103 2 2 14 -15 26 -39 47 -93
298 -481 320 -494 5 -3 -37 62 -92 145 -151 227 -229 362 -349 605 -120 243
-165 353 -204 495 -44 161 -34 252 62 540 39 120 39 120 73 51 27 -53 40 -67
127 -126 53 -36 125 -88 160 -116 34 -28 62 -48 62 -45 0 7 -119 101 -205 161
-77 54 -97 71 -114 102 -15 29 -14 33 7 26 9 -3 5 3 -10 16 -20 16 -37 53 -68
149 -24 70 -51 147 -61 172 -130 323 -199 523 -199 575 0 51 21 60 55 25 33
-34 27 -53 -7 -24 -20 17 -21 17 -9 1 16 -21 63 -47 84 -47 7 0 -9 23 -36 52
-123 131 -246 340 -361 613 -21 50 -48 113 -61 140 -12 28 -36 84 -54 125 -30
72 -69 145 -180 335 -83 141 -191 354 -282 553 l-83 183 34 69 c18 38 40 72
48 75 10 3 12 0 8 -10 -3 -8 -1 -14 5 -12 8 2 159 -223 159 -238 0 -9 188
-317 239 -390 76 -111 169 -232 183 -241 7 -4 8 -3 4 4 -5 8 4 12 28 12 19 0
38 5 41 10 4 7 -2 9 -19 4 -49 -12 -82 14 -159 120 -109 151 -126 176 -232
361 -108 188 -184 311 -227 366 l-27 36 19 54 c22 59 29 124 14 139 -5 5 -10
-6 -10 -28 -2 -58 -8 -92 -16 -92 -4 0 -5 -6 -3 -12 5 -13 -25 -75 -123 -260
-57 -107 -64 -135 -9 -38 l33 60 29 -62 c123 -270 220 -464 294 -591 28 -49
51 -93 51 -99 0 -5 -8 -22 -18 -36 -34 -49 -35 -57 -2 -19 l33 38 24 -43 c53
-93 140 -266 165 -328 l26 -65 -31 -62 c-17 -35 -37 -63 -44 -63 -7 0 -35 9
-62 20 -27 10 -87 28 -133 39 -219 52 -408 53 -618 1 -195 -48 -180 -48 -241
-2 -92 67 -93 70 -67 130 13 28 26 52 29 52 3 0 26 -47 50 -104 44 -104 62
-132 39 -59 -7 21 -28 72 -47 114 l-34 76 51 128 c28 70 49 129 47 131 -2 3
-11 -13 -20 -33 -43 -100 -107 -254 -107 -258 0 -21 -130 -269 -178 -340 -61
-90 -202 -266 -270 -338 l-37 -39 -103 7 c-57 4 -118 8 -135 11 -18 2 -54 6
-82 10 -221 27 -460 107 -730 245 -174 88 -257 138 -250 149 3 5 -1 35 -9 67
-8 32 -20 110 -26 173 -6 63 -20 188 -31 277 -10 89 -19 167 -19 174 0 7 -2
10 -6 7 -3 -3 2 -68 11 -144 14 -116 14 -153 4 -221 -7 -45 -15 -87 -19 -93
-5 -7 -39 -9 -112 -4 l-104 7 12 71 c34 188 47 252 51 259 2 4 16 -1 31 -12
38 -26 109 -61 124 -61 7 0 -20 18 -60 40 -119 65 -182 113 -282 217 -119 122
-158 170 -247 303 -57 85 -203 340 -203 355 0 2 -13 32 -29 67 -65 140 -141
356 -166 469 -18 86 -19 46 0 -67 36 -220 134 -619 200 -815 14 -40 23 -74 21
-76 -4 -4 -102 223 -165 382 -48 124 -111 337 -166 565 -41 168 -125 583 -150
740 -3 19 -10 60 -15 90 -5 30 -17 107 -25 170 -9 63 -18 126 -20 140 -16 106
-43 407 -51 570 -4 74 -8 138 -10 141 -2 3 -5 178 -8 390 -5 412 2 661 29
1004 2 33 7 94 10 135 3 41 12 149 21 239 16 163 16 164 75 305 110 259 414
856 429 840 4 -5 13 -38 19 -74 16 -86 95 -402 127 -510 46 -152 105 -302 169
-432 67 -136 109 -198 131 -198 8 0 14 2 14 4 0 2 -20 48 -44 102 -67 153
-150 422 -236 763 -41 163 -100 445 -100 477 0 31 121 235 288 488 l54 81 -6
-50 c-30 -271 -40 -682 -24 -945 19 -286 85 -553 194 -774 19 -37 34 -80 34
-95 0 -16 3 -21 8 -14 5 8 17 -6 36 -38 40 -72 41 -56 1 26 -19 39 -34 77 -35
85 0 8 -9 38 -19 65 -10 28 -28 106 -40 175 -40 228 -58 518 -22 328 16 -78
57 -230 77 -283 12 -30 14 -64 10 -145 -5 -110 -1 -116 12 -15 l7 60 61 -126
c58 -118 180 -316 190 -306 3 2 -20 40 -49 83 -97 141 -191 348 -252 560 -33
114 -91 403 -104 519 l-10 90 4 -85 c14 -347 48 -664 86 -803 6 -22 8 -41 5
-44 -7 -7 -26 40 -74 183 -84 247 -113 479 -113 913 0 237 3 287 22 476 40
403 157 952 291 1365 37 115 59 160 79 160 4 0 38 17 76 38 143 81 429 225
522 263 159 66 521 193 528 186 2 -2 -5 -15 -15 -28 -56 -71 -178 -297 -246
-453 -29 -66 -29 -66 -17 -66 4 0 16 21 26 48 38 99 174 362 236 454 43 63 35
59 259 122 398 112 728 170 1145 200 672 49 1251 -49 1889 -322 60 -26 110
-51 112 -57 24 -76 58 -165 61 -161 3 3 -7 37 -22 76 -15 39 -25 73 -22 76 6
7 184 -82 315 -158 106 -61 154 -76 62 -19 -63 39 -431 227 -520 266 -354 154
-691 246 -1110 301 -191 25 -722 25 -937 -1 -21 -2 -81 -9 -133 -15 -415 -45
-991 -194 -1471 -381 -57 -22 -117 -46 -134 -52 -44 -16 -641 -318 -700 -354
-27 -16 -95 -56 -150 -88 -142 -83 -215 -130 -420 -269 -193 -131 -474 -378
-530 -466 -39 -62 -76 -137 -81 -166 -10 -57 -48 -169 -51 -152 -4 15 54 314
63 330 2 3 22 75 44 159 54 203 92 273 238 431 288 311 1070 779 1765 1057
167 66 248 92 552 176 372 102 836 190 1120 211 50 4 94 9 98 11 4 3 83 9 175
14 381 20 877 -45 1252 -165 219 -69 423 -152 611 -246 121 -61 176 -92 287
-161 13 -8 53 -54 89 -104 184 -251 577 -688 783 -870 82 -73 277 -222 398
-305 51 -35 91 -69 89 -74 -2 -6 -10 -28 -18 -48 -17 -48 -47 -51 -83 -7 -30
36 -32 49 -10 90 8 17 14 33 11 35 -6 7 -23 -18 -33 -48 l-9 -27 -80 77 c-163
157 -347 313 -540 456 -66 50 -136 101 -155 116 -80 60 -343 231 -347 226 -8
-8 8 -27 18 -21 5 4 9 1 9 -4 0 -6 5 -11 10 -11 10 0 144 -89 270 -178 111
-79 338 -251 426 -324 l90 -75 27 -119 c54 -242 77 -373 111 -644 24 -184 31
-345 30 -655 -1 -245 -4 -312 -22 -430 -79 -510 -230 -937 -444 -1259 -69
-104 -64 -104 11 -1 43 59 51 66 52 45 0 -14 2 -34 4 -45 2 -11 7 -65 11 -121
8 -121 9 -116 -141 -499 -13 -33 -49 -130 -81 -215 -183 -492 -253 -677 -276
-730 -40 -91 -156 -317 -198 -385 -92 -151 -241 -314 -384 -420 -81 -59 -257
-152 -381 -199 -38 -15 -85 -34 -104 -43 -18 -8 -39 -16 -45 -18 -6 -1 -20 -5
-31 -9 -99 -38 -98 -37 -106 -24 -5 7 -9 19 -9 27 0 22 -71 149 -87 155 -9 4
-5 -6 10 -24 14 -16 28 -43 32 -60 4 -16 11 -30 17 -30 6 0 8 -7 4 -15 -3 -8
-2 -15 3 -15 19 0 61 -199 87 -410 9 -74 17 -137 19 -140 2 -3 13 -75 25 -160
52 -382 79 -551 99 -629 6 -20 12 -49 15 -66 7 -41 24 -93 25 -77 1 10 10 8
35 -7 18 -12 40 -21 47 -21 8 0 -1 9 -20 21 -19 11 -41 27 -49 36 -16 16 -75
287 -87 399 -4 32 -8 66 -10 74 -4 14 -55 345 -55 356 0 2 24 -10 53 -27 122
-72 257 -126 360 -143 l37 -7 0 84 c0 228 55 687 81 671 5 -3 9 4 9 15 0 24
18 69 39 96 15 18 15 19 -2 5 -43 -33 -84 -154 -103 -305 -4 -33 -9 -62 -9
-65 -1 -3 -5 -50 -9 -105 -5 -55 -10 -111 -11 -125 -2 -14 -4 -78 -4 -143 l-1
-117 -27 6 c-16 3 -63 17 -106 31 l-79 25 6 32 c5 28 48 334 61 431 6 50 35
336 35 351 0 6 12 16 28 23 48 22 196 113 247 154 72 56 200 183 249 247 91
118 194 281 229 360 9 19 24 46 35 59 l19 24 31 -23 c47 -35 133 -26 240 26
l84 41 -6 -156 c-4 -86 -9 -192 -11 -236 -3 -44 -10 -150 -15 -235 -27 -433
-41 -638 -46 -669 -5 -33 -39 -126 -70 -198 -8 -17 -14 -34 -14 -37 0 -4 -32
-72 -72 -152 l-71 -147 -131 7 c-71 4 -131 8 -132 9 -2 1 -4 99 -5 217 -3 281
-15 508 -45 840 -16 179 -31 253 -21 100 39 -551 44 -642 53 -937 6 -188 5
-223 -7 -224 -60 -6 -110 -5 -115 2 -3 5 -1 91 5 192 6 100 13 315 16 477 3
162 7 336 10 385 2 51 0 81 -4 70 -5 -11 -11 -173 -15 -360 -4 -187 -11 -419
-16 -515 -5 -96 -10 -192 -10 -213 0 -36 -2 -38 -27 -35 l-27 3 3 125 c1 69 5
136 8 150 4 17 2 22 -5 15 -22 -22 -32 -837 -11 -980 14 -103 33 -177 78 -308
40 -115 130 -321 138 -314 2 3 -1 17 -7 32 -8 22 -7 31 4 44 16 18 36 85 35
116 0 11 -7 -5 -15 -35 -8 -30 -21 -61 -29 -69 -11 -11 -17 -7 -35 30 -71 144
-144 384 -160 524 -5 50 -10 216 -10 370 l0 280 157 -3 c87 -2 159 -5 160 -6
9 -8 33 -155 29 -172 -6 -23 -208 -233 -266 -277 l-35 -27 48 26 c26 14 47 30
47 35 0 6 3 8 8 5 9 -6 112 71 175 130 26 25 47 42 47 37 0 -4 9 -55 19 -113
11 -58 27 -154 36 -213 l16 -109 -46 -61 c-50 -67 -120 -203 -129 -252 -6 -27
-5 -27 7 5 52 130 138 263 213 326 64 53 116 82 98 53 -3 -6 8 -4 24 5 32 17
82 22 82 9 0 -5 -10 -33 -21 -63 -33 -85 -71 -221 -65 -233 2 -7 5 -5 5 4 1 9
21 79 46 155 40 122 44 140 30 150 -14 10 -12 22 16 100 122 344 244 856 281
1174 10 92 29 161 83 305 75 201 198 658 230 855 3 19 12 73 19 120 21 125 34
231 46 360 6 63 13 140 15 170 23 249 35 823 18 833 -5 3 -9 -117 -9 -267 -2
-328 -35 -775 -79 -1051 -93 -581 -262 -1107 -515 -1602 -119 -233 -224 -396
-361 -558 -105 -125 -214 -233 -225 -222 -2 2 21 30 52 63 265 285 466 721
598 1299 88 387 137 893 137 1420 0 374 -10 568 -47 972 l-15 162 60 113 c182
342 294 737 349 1228 4 36 7 192 6 348 -1 155 1 282 3 282 5 0 123 -183 180
-279 98 -164 111 -188 148 -259 l38 -72 -27 -113 c-68 -283 -149 -544 -300
-962 -60 -166 -67 -195 -48 -195 22 0 127 218 234 485 50 124 127 359 169 510
17 64 33 114 35 113 15 -16 250 -589 310 -758 78 -217 87 -263 104 -545 12
-179 5 -1115 -9 -1345 -58 -930 -140 -1448 -353 -2230 -22 -80 -41 -152 -43
-160 -5 -25 -115 -373 -124 -395 -5 -11 -23 -60 -41 -110 -53 -149 -134 -352
-199 -494 -65 -144 -156 -320 -173 -336 -12 -12 -13 -13 31 80 139 297 314
827 412 1250 64 275 147 746 137 776 -2 7 -12 -43 -22 -112 -32 -228 -56 -319
-146 -554 -83 -217 -280 -636 -355 -755 -14 -22 -25 -42 -25 -46 0 -13 -205
-312 -263 -384 -34 -41 -91 -106 -127 -144 -67 -70 -218 -201 -224 -195 -2 2
25 35 60 73 93 99 185 216 266 336 38 58 80 116 91 130 12 14 -4 1 -35 -29
-32 -30 -56 -57 -53 -59 2 -3 -1 -14 -7 -26 -17 -32 -141 -196 -145 -192 -2 2
-5 20 -7 40 -2 35 2 41 75 103 43 37 76 69 74 72 -3 2 -24 -14 -47 -35 -115
-105 -255 -205 -390 -279 -100 -53 -93 -61 -78 80 19 169 50 325 90 451 23 70
39 129 36 131 -5 6 -60 -163 -85 -263 -19 -75 -33 -167 -62 -399 -19 -162 -53
-312 -86 -382 -17 -36 -94 -73 -244 -117 -123 -35 -268 -79 -404 -121 -200
-62 -368 -104 -503 -124 -70 -11 -114 -20 -98 -20 68 -2 251 34 449 88 189 53
292 83 597 177 95 30 243 98 262 122 10 12 7 11 -14 -2 -32 -21 -35 -12 -14
39 13 31 19 35 50 35 32 0 38 -5 57 -41 27 -54 51 -129 84 -269 15 -63 31
-128 36 -145 16 -58 -2 67 -22 147 -10 42 -19 81 -19 87 0 6 32 -5 72 -25 51
-27 75 -34 86 -27 38 24 81 223 91 424 l7 136 86 94 c87 94 153 177 240 300
115 163 278 464 398 734 24 55 45 102 47 104 1 2 9 -2 18 -9 9 -7 18 -10 21
-7 3 3 -3 11 -14 18 -18 12 -18 15 18 108 20 53 41 105 48 116 11 20 11 20 12
-2 0 -24 -73 -322 -127 -513 -72 -261 -212 -659 -297 -850 -66 -147 -189 -376
-211 -392 -6 -5 -6 -8 2 -8 6 0 22 17 34 38 12 20 62 98 109 172 162 251 347
664 484 1082 17 53 35 100 38 103 10 10 67 -80 97 -153 30 -73 91 -262 115
-357 73 -286 111 -634 115 -1045 2 -183 -9 -428 -23 -520 -10 -61 -14 -144 -7
-115 5 17 6 -125 3 -315 -7 -525 12 -735 129 -1460 15 -98 18 -104 14 -45 -2
39 -13 131 -25 205 -55 364 -79 544 -85 635 -3 55 -8 129 -11 165 -10 137 -2
867 13 1100 22 365 -11 916 -73 1230 -52 260 -144 538 -211 639 l-43 64 50
173 c164 562 293 1205 340 1694 6 63 13 129 15 145 2 17 6 64 10 105 3 41 8
93 10 115 2 22 7 99 10 170 4 72 9 141 11 155 17 107 24 991 11 1340 -5 118
-8 222 -7 230 6 45 1 184 -9 240 -5 36 -20 146 -31 245 -23 190 -66 476 -101
660 -12 61 -23 121 -25 135 -7 39 -71 342 -100 475 -14 66 -30 158 -34 205 -7
77 -13 100 -49 180 l-11 25 5 -26 c2 -14 -2 -86 -10 -160 -22 -193 -24 -211
-50 -344 -12 -66 -26 -139 -30 -163 l-7 -42 -90 157 c-102 178 -182 301 -274
419 -61 79 -63 83 -73 165 -32 245 -80 511 -120 667 l-19 74 66 -63 c140 -130
359 -359 403 -420 26 -36 54 -82 63 -103 16 -37 17 -38 40 -23 23 15 25 15 53
-16 32 -36 136 -181 173 -242 13 -22 27 -42 31 -45 3 -3 32 -48 63 -100 32
-52 61 -102 66 -110 31 -51 100 -179 108 -201 6 -14 13 -43 17 -65 27 -166 47
-340 60 -519 20 -287 45 -697 46 -772 1 -35 6 -63 11 -63 5 0 7 19 4 43 -3 23
-8 112 -11 197 -3 85 -8 189 -10 230 -2 41 -7 122 -10 180 -3 58 -10 144 -16
193 l-9 87 64 61 c150 140 311 465 390 788 49 199 68 362 69 591 1 532 -116
943 -426 1490 -108 191 -258 418 -344 520 -117 140 -165 193 -278 308 -347
356 -760 658 -1318 966 -312 172 -631 302 -933 381 l-96 25 -1412 -1 -1411 -1
-125 -28z m-1246 -3027 c-72 -223 -189 -701 -219 -900 -5 -31 -37 -88 -119
-210 -123 -185 -176 -268 -248 -387 -29 -49 -49 -74 -52 -65 -7 18 -94 555
-111 679 -3 25 -12 90 -21 145 l-15 100 47 150 c25 83 47 159 48 170 2 11 18
30 37 43 44 30 72 50 123 88 109 81 552 352 577 354 4 0 -18 -75 -47 -167z
m6442 -569 c69 -52 72 -57 63 -82 -5 -15 -26 -49 -45 -76 l-36 -48 -49 68
c-27 38 -51 76 -54 85 -5 16 31 109 42 109 4 0 39 -25 79 -56z m281 -223 c206
-173 199 -164 217 -261 23 -125 45 -260 52 -321 3 -30 10 -81 15 -114 5 -33 8
-80 8 -105 -1 -40 -2 -42 -8 -15 -7 26 -98 211 -134 270 -56 93 -217 328 -276
404 l-74 94 32 61 c17 34 31 67 31 74 0 24 21 11 137 -87z m-56 -627 c101
-463 211 -1084 234 -1319 5 -57 4 -55 -30 55 -43 135 -130 353 -221 552 -100
218 -96 202 -74 315 25 129 60 394 60 451 0 63 8 48 31 -54z m-380 9 c60 -101
99 -174 99 -185 0 -7 -10 -26 -23 -41 l-22 -28 -64 102 -64 103 23 43 c12 24
24 43 25 43 2 0 13 -17 26 -37z m-580 -2450 c1 -32 3 -73 5 -91 3 -28 1 -33
-14 -28 -9 2 -38 7 -64 11 -26 3 -50 11 -54 16 -3 6 4 39 17 74 19 54 27 65
48 68 63 10 61 11 62 -50z m-52 -124 l61 -12 1 -96 c1 -53 3 -174 4 -269 l1
-174 -55 -37 c-60 -41 -170 -99 -211 -112 -20 -6 -21 -7 -5 -8 29 -1 118 43
200 99 l72 48 -4 -76 c-2 -43 -6 -110 -9 -149 l-6 -73 -101 -67 c-161 -105
-234 -142 -292 -144 -81 -3 -94 0 -111 26 -16 25 -15 31 41 183 32 86 64 172
72 191 l13 34 31 -31 c44 -45 54 -40 13 5 -19 20 -34 40 -34 44 0 25 25 63 71
108 28 28 47 51 42 51 -6 0 -26 -16 -46 -35 -21 -20 -37 -32 -37 -27 0 6 18
56 41 113 23 57 55 142 71 189 16 47 33 89 38 93 11 12 48 -39 60 -84 7 -24 7
-52 1 -79 -9 -41 -57 -112 -93 -138 -10 -7 -18 -17 -18 -22 0 -18 83 67 103
105 29 55 28 140 -2 188 l-22 36 63 4 63 3 -72 2 c-40 1 -73 6 -73 11 0 27 45
121 56 117 6 -2 39 -10 73 -17z m47 -916 c-3 -27 -8 -88 -11 -138 -17 -235
-52 -502 -90 -691 -33 -160 -117 -474 -128 -474 -2 0 0 33 4 73 4 39 10 113
13 162 13 185 17 242 21 300 2 33 7 121 11 195 3 74 8 149 9 165 2 17 4 98 4
182 l1 152 56 38 c31 21 68 48 83 60 14 12 27 23 29 23 2 0 1 -21 -2 -47z
m-1361 -1139 c-8 -77 -22 -191 -31 -254 -8 -63 -17 -133 -20 -155 -8 -60 -11
-82 -25 -171 l-12 -81 -61 34 c-34 19 -82 44 -109 56 -28 13 -49 30 -52 42 -3
11 -16 106 -30 210 -14 105 -33 216 -42 248 -9 32 -14 59 -12 61 2 2 58 22
123 44 l119 41 -7 -317 c-4 -174 -9 -327 -12 -338 -3 -12 -1 -24 4 -28 5 -3
10 28 12 77 1 45 3 93 5 107 2 14 4 133 4 266 l1 241 78 30 c42 17 78 30 80
28 1 -1 -4 -65 -13 -141z m1370 -111 c-3 -38 -10 -86 -15 -108 -5 -22 -12 -62
-16 -90 -3 -27 -8 -52 -9 -55 -2 -3 -6 -25 -10 -50 -4 -25 -9 -48 -11 -52 -3
-4 -9 -31 -14 -60 -8 -44 -25 -122 -44 -200 -3 -9 -12 -44 -21 -76 l-17 -60
-66 -1 c-36 0 -68 2 -72 4 -4 2 -4 26 0 52 4 26 11 75 15 108 10 92 20 125 53
185 46 81 197 389 213 433 7 20 15 37 17 37 2 0 1 -30 -3 -67z m-337 -755 c16
-35 42 -123 58 -196 l28 -133 -28 -85 c-24 -75 -30 -84 -52 -84 -13 0 -24 -4
-24 -10 0 -5 -6 -7 -14 -4 -8 3 -27 -1 -42 -9 l-29 -15 -37 222 c-21 121 -38
228 -38 236 0 8 23 43 51 78 69 84 88 84 127 0z m171 -38 c-36 -116 -49 -161
-59 -197 -11 -44 -25 -57 -27 -25 -1 18 -49 210 -58 233 -4 11 11 14 73 14
l79 0 -8 -25z m21 -1343 c0 -52 -1 -54 -84 -147 -46 -52 -83 -98 -80 -101 2
-4 -4 -13 -14 -20 -15 -13 -16 -12 -4 3 12 15 10 19 -17 33 -29 15 -31 19 -31
73 l0 57 113 76 c61 42 113 77 115 78 1 0 2 -23 2 -52z m-5 -239 c-3 -57 -7
-103 -8 -104 -1 0 -32 18 -69 41 l-68 42 73 61 c39 34 74 61 76 62 2 0 0 -46
-4 -102z m-130 -138 c121 -75 118 -72 110 -120 -4 -22 -17 -71 -28 -108 -26
-79 -41 -86 -114 -49 -62 32 -91 57 -94 82 -4 26 33 245 41 245 3 0 42 -22 85
-50z"/>
<path d="M7242 12525 c3 -11 22 -74 43 -140 96 -313 205 -823 250 -1170 8 -66
17 -136 20 -155 6 -42 25 -313 25 -353 l0 -27 -39 26 c-45 29 -44 27 -57 279
-3 72 -10 150 -15 175 -7 37 -7 33 -3 -25 11 -164 16 -385 10 -385 -5 0 -56
26 -114 57 -59 31 -143 71 -187 89 l-80 33 -18 58 c-52 167 -134 413 -183 547
-78 213 -166 438 -169 434 -2 -2 19 -64 47 -138 60 -160 190 -533 224 -642 58
-187 74 -242 71 -244 -1 -2 -20 38 -41 89 -67 157 -220 474 -321 662 -42 78
-44 85 -69 280 -25 189 -63 394 -65 350 0 -11 4 -38 9 -60 8 -33 24 -135 45
-290 2 -16 9 -82 15 -145 6 -63 13 -131 16 -150 3 -19 8 -178 11 -352 l6 -316
-29 -5 -29 -4 28 -2 c23 -1 27 -5 23 -23 -3 -13 -8 -59 -11 -103 -6 -70 -25
-220 -41 -310 -22 -129 -100 -415 -149 -551 -20 -54 -43 -118 -52 -142 -24
-67 -28 -41 -4 30 43 132 88 347 106 503 3 28 8 73 12 100 7 60 6 665 -2 673
-3 3 -5 -127 -6 -289 0 -162 -2 -310 -4 -329 -2 -19 -6 -66 -10 -105 -13 -155
-66 -418 -115 -575 -16 -52 -27 -96 -25 -98 2 -3 -2 -11 -10 -19 -17 -16 -20
-33 -6 -33 11 0 26 39 22 59 -1 7 2 10 7 7 29 -18 174 416 242 724 13 60 47
306 55 403 6 72 8 77 29 77 37 0 121 -18 242 -51 l113 -31 31 -82 c29 -74 113
-422 140 -576 38 -220 50 -317 50 -414 0 -60 3 -106 7 -103 8 9 6 211 -2 282
-25 202 -142 759 -180 858 -4 9 -3 17 3 17 13 0 152 -61 262 -114 97 -47 108
-60 103 -128 -19 -281 -44 -446 -98 -641 -18 -67 -32 -124 -30 -125 2 -2 18
40 35 95 39 120 84 361 102 543 11 117 14 129 20 90 22 -139 38 -360 38 -549
0 -118 3 -211 7 -208 8 8 6 390 -3 497 -3 41 -12 135 -20 208 -8 74 -14 136
-14 138 0 2 16 -6 35 -18 l35 -23 2 -210 3 -210 2 208 3 208 43 -32 c23 -18
69 -56 102 -83 33 -28 49 -38 36 -24 -13 15 -59 55 -102 90 l-79 63 0 70 c0
149 -34 462 -75 700 -14 77 -27 156 -30 175 -11 69 92 -147 212 -439 195 -481
350 -1073 408 -1561 27 -222 15 -680 -18 -703 -20 -14 -107 -1 -135 20 -15 11
-51 64 -80 119 -29 54 -68 119 -86 144 -49 68 -49 70 -28 70 12 0 39 -28 76
-77 31 -43 64 -87 72 -98 31 -38 -18 38 -67 107 -27 37 -49 72 -49 77 0 5 13
12 29 16 16 3 36 14 43 23 11 14 11 15 -7 8 -10 -4 -37 -9 -60 -12 -39 -5 -41
-4 -125 81 -95 97 -155 143 -311 237 -153 93 -191 103 -374 103 -162 -1 -195
-7 -375 -70 -99 -34 -234 -94 -227 -101 2 -2 23 6 48 18 47 23 176 68 193 68
6 0 -23 -20 -64 -44 -109 -64 -203 -150 -309 -280 -9 -11 -10 -16 -3 -12 14 8
16 -6 3 -19 -6 -6 -17 -26 -25 -46 -14 -33 -13 -35 2 -34 9 0 69 35 132 77
241 160 357 201 570 202 123 1 142 -1 208 -26 245 -89 504 -364 621 -659 33
-84 61 -216 61 -288 0 -64 -35 -224 -59 -274 l-20 -42 25 30 c14 17 43 59 64
95 22 36 40 58 40 50 0 -24 50 57 70 113 12 32 19 43 19 30 1 -13 6 -23 11
-23 6 0 10 29 10 68 0 49 3 63 11 52 17 -25 -1 107 -26 186 l-22 71 59 7 c32
3 68 10 78 16 24 13 23 18 5 -94 -8 -49 -13 -91 -11 -94 10 -9 45 215 54 338
13 199 6 702 -13 858 -3 20 -12 107 -20 192 -14 137 -67 533 -80 600 -3 14
-17 88 -31 165 -28 151 -92 427 -125 540 -31 102 -101 297 -105 292 -3 -2 9
-42 25 -88 99 -284 198 -730 255 -1159 19 -139 30 -236 46 -390 6 -58 12 -117
14 -132 6 -58 -10 -24 -26 55 -23 112 -91 400 -123 522 -45 169 -171 538 -226
661 -10 22 -28 65 -39 95 -12 30 -66 151 -120 269 -88 191 -103 233 -134 367
-57 245 -166 627 -183 643 -3 3 -4 -4 -1 -15z m-451 -1024 c78 -157 149 -311
224 -482 l33 -75 -80 23 c-68 19 -212 43 -268 43 -13 0 -15 27 -14 203 1 180
-6 354 -20 472 l-5 40 24 -29 c13 -16 60 -104 106 -195z"/>
<path d="M4826 12172 c-103 -392 -179 -823 -211 -1192 -3 -36 -10 -114 -16
-175 -6 -60 -10 -222 -10 -360 0 -295 13 -436 55 -635 8 -36 13 -66 11 -68 -6
-7 -57 135 -93 264 -62 217 -107 441 -132 654 -6 52 -12 111 -15 130 -20 176
-27 683 -12 900 8 127 30 317 52 455 20 123 19 129 -17 60 -69 -134 -309 -683
-382 -875 -20 -52 -42 -108 -49 -125 -7 -16 -26 -69 -41 -116 l-29 -86 -64
-12 c-36 -7 -68 -10 -70 -7 -3 2 0 28 6 57 6 28 9 54 7 56 -2 3 -10 -20 -17
-50 -6 -31 -15 -60 -18 -65 -3 -6 -71 -36 -151 -67 -186 -73 -260 -107 -337
-156 -34 -21 -65 -39 -68 -39 -9 0 -4 323 6 410 4 41 11 100 14 130 25 235
135 663 236 918 32 81 33 82 20 82 -5 0 -15 -17 -21 -37 -7 -21 -46 -116 -87
-212 -137 -320 -311 -885 -412 -1338 -51 -227 -113 -561 -130 -698 -6 -44 -13
-98 -15 -120 -34 -264 -66 -725 -50 -725 5 0 9 30 9 67 0 292 93 1003 180
1378 45 193 129 533 151 610 101 347 198 634 211 621 2 -2 -10 -59 -26 -126
-67 -264 -98 -492 -108 -787 l-6 -192 -78 -61 c-110 -87 -121 -105 -15 -25 49
36 90 65 91 63 2 -2 6 -52 9 -113 20 -347 77 -593 202 -881 3 -6 -25 -33 -61
-59 -37 -26 -64 -49 -61 -52 9 -10 -75 -103 -92 -103 -11 1 1 17 33 45 28 25
46 45 41 45 -4 0 -35 -23 -68 -51 -58 -51 -60 -52 -109 -46 -28 4 -64 13 -80
21 -16 8 -29 11 -29 6 0 -12 65 -58 93 -65 25 -7 25 -7 -39 -83 -36 -43 -88
-115 -116 -162 -55 -91 -72 -110 -100 -110 -13 0 -18 8 -18 25 0 14 -5 25 -11
25 -6 0 -9 -7 -6 -15 4 -8 1 -17 -5 -21 -7 -4 -7 -8 0 -13 12 -7 18 -131 8
-176 l-6 -30 15 30 c12 23 15 24 11 8 -2 -13 1 -26 6 -30 8 -4 9 7 5 33 -5 30
-1 52 18 92 24 51 25 52 69 52 l45 0 -34 -73 c-38 -83 -85 -236 -85 -276 1
-25 1 -25 20 9 l19 35 1 -45 c1 -76 11 -122 26 -116 9 4 14 -2 14 -17 0 -12 9
-40 19 -62 l19 -40 1 35 1 35 26 -45 c27 -48 94 -133 100 -128 2 2 -9 28 -24
58 -24 48 -27 69 -30 168 -3 97 0 125 22 205 50 175 148 341 288 485 138 143
257 226 381 269 73 25 96 28 207 28 115 -1 133 -3 220 -33 183 -63 426 -211
477 -289 22 -34 26 -22 9 28 l-15 44 31 -35 31 -35 -33 60 c-66 122 -153 227
-280 338 l-55 49 65 -32 c82 -41 142 -82 204 -140 31 -29 45 -37 37 -22 -19
36 -156 139 -240 181 -195 98 -465 156 -614 133 -73 -12 -187 -55 -264 -100
-29 -18 -53 -28 -53 -24 0 4 -4 1 -9 -6 -5 -9 -21 19 -49 85 -92 223 -147 490
-159 780 l-6 141 59 38 c77 50 269 136 385 174 51 16 96 30 100 30 4 0 -6 -37
-23 -82 -98 -264 -225 -716 -272 -973 -22 -116 -28 -157 -23 -161 3 -3 8 18
12 45 4 28 11 51 16 51 4 0 6 6 3 13 -5 14 31 191 66 321 11 43 34 128 51 189
39 149 150 489 156 483 3 -2 -2 -57 -12 -120 -30 -208 -38 -580 -16 -723 8
-51 8 -51 -23 -62 l-31 -10 32 5 c27 4 32 2 36 -18 4 -20 4 -20 6 5 0 15 7 27
14 27 8 0 9 3 1 8 -14 9 -24 50 -14 54 4 2 10 42 13 90 15 198 63 445 139 713
28 99 53 182 55 185 2 3 55 12 116 22 l112 17 -107 -3 c-60 -1 -108 0 -108 3
0 8 96 276 109 306 5 11 37 89 70 173 34 84 72 176 85 205 13 29 50 113 81
187 64 152 112 250 121 250 9 0 0 -122 -22 -305 -26 -220 -25 -860 1 -1085 3
-19 7 -57 10 -85 16 -151 63 -397 105 -560 39 -150 92 -301 136 -391 24 -49
42 -78 39 -64 -4 14 -15 61 -26 104 -47 191 -64 363 -64 661 0 180 12 493 20
518 2 7 6 46 10 87 6 73 32 300 40 350 2 14 9 57 15 95 30 197 104 554 133
645 l21 65 7 -130 c4 -71 9 -193 13 -270 5 -138 32 -491 41 -550 2 -16 7 -52
10 -80 6 -48 25 -183 44 -310 16 -106 71 -366 111 -520 67 -257 129 -442 224
-663 l36 -84 -31 -105 c-36 -125 -33 -149 4 -31 67 212 114 451 137 698 13
141 25 708 15 698 -3 -3 -8 -114 -10 -245 -5 -299 -18 -483 -51 -708 -13 -88
-45 -237 -53 -253 -6 -11 -9 -11 -18 0 -14 18 -125 303 -156 403 -91 286 -188
726 -221 995 -3 25 -12 99 -21 165 -31 248 -51 533 -61 865 -3 124 -7 226 -8
227 -1 1 -15 -46 -30 -105z m-908 -1224 c-96 -306 -177 -708 -178 -886 0 -40
-4 -61 -10 -57 -16 10 -12 430 5 580 16 142 51 354 60 363 4 5 99 28 127 31 4
1 2 -14 -4 -31z m-786 -1572 c-27 -29 -86 -124 -122 -196 -25 -49 -39 -64 -75
-82 -25 -12 -47 -19 -50 -16 -7 7 56 116 109 188 71 96 115 138 137 133 20 -6
20 -6 1 -27z"/>
<path d="M6487 11337 c-9 -115 -41 -367 -62 -482 -8 -44 -17 -94 -20 -112 -26
-153 -97 -440 -146 -585 -94 -281 -184 -477 -343 -743 -15 -25 -15 -27 -1 -10
32 38 128 207 185 328 108 226 186 440 244 672 27 109 91 416 100 480 3 22 15
117 28 212 12 94 26 169 30 167 4 -3 8 -22 8 -42 0 -22 4 -32 9 -26 6 5 4 44
-4 99 -7 50 -15 101 -17 115 -2 14 -7 -19 -11 -73z"/>
<path d="M3845 9550 c-97 -31 -271 -166 -334 -259 -23 -33 -41 -62 -41 -65 0
-2 14 2 31 11 39 19 84 8 111 -27 41 -56 56 -223 26 -302 -20 -53 -132 -117
-204 -118 -50 0 -65 15 -72 75 -2 25 -8 45 -12 45 -15 0 -34 -144 -34 -245 2
-272 151 -510 399 -635 222 -112 419 -80 599 97 47 46 103 121 95 126 -43 25
-42 25 -87 -32 -48 -62 -93 -100 -167 -139 -44 -23 -61 -26 -145 -26 -82 0
-107 5 -178 32 -146 55 -267 153 -322 262 -35 69 -34 76 8 119 26 27 36 44 31
53 -24 37 1 78 69 113 49 24 91 23 111 -4 16 -20 22 -22 67 -15 71 11 69 12
97 -22 14 -17 44 -36 66 -43 35 -10 46 -9 77 5 19 9 42 27 51 40 8 12 20 21
26 19 60 -18 67 -16 67 14 0 54 64 67 140 29 71 -36 87 -100 31 -121 l-27 -10
53 -53 c50 -50 53 -55 47 -91 -3 -26 -1 -44 9 -58 14 -19 16 -18 32 20 122
292 59 757 -140 1015 -53 69 -117 118 -211 162 -58 27 -82 32 -154 35 -47 1
-98 -2 -115 -7z"/>
<path d="M6784 9466 c-123 -40 -286 -170 -343 -275 l-24 -43 45 26 c51 30 86
33 128 11 41 -21 63 -101 63 -224 -1 -76 -5 -99 -20 -120 -22 -29 -161 -107
-211 -117 -46 -9 -78 15 -91 68 -8 33 -9 -3 -7 -147 4 -216 19 -295 83 -424
48 -100 170 -224 263 -268 123 -60 267 -64 406 -12 58 22 164 93 238 161 l50
44 -39 36 -39 35 -49 -53 c-27 -30 -82 -74 -123 -100 -156 -97 -288 -110 -423
-39 -84 45 -174 129 -225 213 -35 58 -76 166 -76 201 0 10 23 39 50 64 28 25
50 50 50 56 0 65 139 115 180 65 8 -8 21 -12 35 -8 20 5 24 1 30 -26 4 -17 26
-52 49 -76 34 -35 49 -44 77 -44 46 0 96 32 116 75 19 39 28 42 69 20 27 -14
29 -13 33 3 6 31 23 42 65 42 49 0 116 -35 133 -70 17 -34 -3 -64 -46 -68
l-32 -3 40 -44 c22 -24 49 -61 60 -82 11 -22 32 -48 46 -57 14 -9 34 -31 44
-48 l19 -30 26 45 c58 98 86 219 86 373 0 197 -54 361 -186 561 -80 121 -159
194 -261 245 -78 39 -95 43 -167 45 -46 2 -98 -3 -122 -11z"/>
<path d="M1078 9228 c-2 -125 -2 -187 8 -1068 6 -540 5 -631 -10 -750 -55
-442 -183 -1039 -311 -1450 -103 -331 -216 -646 -395 -1110 -262 -677 -371
-981 -369 -1028 0 -9 19 42 43 113 51 152 112 316 311 830 66 171 164 430 228
605 94 252 234 695 282 890 14 58 34 139 45 180 37 145 95 432 124 610 70 430
81 596 70 1050 -5 184 -9 539 -9 788 0 248 -3 452 -7 452 -5 0 -9 -51 -10
-112z"/>
<path d="M2477 8937 c-5 -76 -10 -153 -12 -170 -2 -18 -9 -144 -15 -282 -5
-137 -12 -299 -15 -360 -6 -125 -8 -622 -5 -980 2 -250 17 -559 35 -750 38
-394 83 -661 162 -965 40 -156 117 -392 163 -500 44 -106 45 -110 14 -60 -28
45 -174 353 -174 367 0 5 -13 40 -29 78 -68 168 -175 555 -225 810 -104 541
-134 891 -142 1685 -3 267 -7 490 -9 495 -7 19 -2 -850 5 -1004 23 -464 30
-545 66 -801 24 -165 74 -442 94 -520 4 -19 13 -75 20 -125 30 -251 62 -418
133 -699 l35 -138 -36 5 c-30 5 -33 4 -17 -5 11 -6 33 -22 50 -37 l30 -26 -24
27 c-14 16 -21 28 -17 28 25 0 92 -49 148 -108 83 -88 132 -186 154 -302 30
-168 35 -189 56 -216 21 -26 21 -28 5 -72 -10 -25 -15 -47 -13 -49 2 -3 7 6
12 19 4 13 51 120 104 238 105 231 134 310 127 337 -4 14 -5 13 -6 -4 -1 -31
-35 -122 -84 -226 -29 -64 -45 -86 -55 -82 -12 4 -12 2 -3 -8 9 -11 4 -30 -21
-86 -17 -39 -36 -70 -42 -68 -6 2 -19 18 -29 35 -17 29 -17 34 -1 121 l18 91
28 -33 29 -32 -27 42 -26 42 17 78 c36 172 186 676 206 698 8 8 14 -169 9
-262 -1 -18 2 -33 7 -33 4 0 7 57 7 128 -9 758 -6 912 23 1031 3 14 3 23 0 20
-4 -3 -14 -39 -23 -80 -14 -61 -17 -135 -17 -431 l0 -358 -53 0 c-61 0 -58 -6
-69 144 -19 283 -13 1112 10 1298 2 15 6 76 10 135 3 59 9 117 11 128 4 16 3
17 -4 5 -14 -22 -42 -417 -50 -700 -7 -260 2 -804 16 -932 l8 -76 -29 -6 c-61
-12 -63 -11 -77 67 -7 39 -14 81 -16 92 -33 176 -79 596 -90 809 -3 67 -7 135
-10 151 -2 17 -7 182 -11 368 l-6 338 35 -21 c53 -31 152 -45 189 -26 l29 14
69 -141 c65 -135 144 -262 251 -407 45 -61 106 -116 228 -206 57 -42 58 -44
43 -154 -5 -36 -12 -101 -16 -145 -3 -44 -8 -98 -10 -120 -16 -154 -23 -563
-11 -583 5 -9 -15 -12 -76 -12 l-83 0 -2 98 c-6 362 -8 434 -14 492 -4 36 -5
-2 -3 -85 2 -82 4 -236 5 -341 l1 -192 31 8 c18 4 77 11 132 14 55 4 117 10
137 15 35 8 38 8 33 -13 -3 -11 -23 -100 -45 -197 -77 -348 -86 -365 -169
-356 -28 3 -52 13 -68 30 -24 23 -25 31 -32 198 -8 170 -8 171 -9 49 0 -112
23 -364 27 -281 1 34 1 34 22 15 16 -14 36 -19 79 -19 l57 0 -14 -40 c-7 -22
-10 -35 -4 -30 20 22 61 163 115 395 31 135 71 304 87 375 17 72 36 157 44
190 47 208 61 265 96 400 51 198 50 195 58 195 4 0 8 6 8 13 0 6 4 21 9 31 5
13 4 17 -4 13 -6 -4 -20 -38 -33 -75 -12 -37 -23 -69 -25 -70 -7 -9 -237 114
-328 175 -159 107 -233 184 -354 368 -182 276 -288 527 -471 1115 -151 486
-202 640 -277 825 -42 104 -49 132 -54 210 l-5 90 -8 -138z m75 -244 c9 -9 24
-38 33 -67 9 -28 21 -60 26 -71 5 -11 15 -39 23 -62 l15 -43 -47 24 c-26 13
-67 26 -92 30 l-45 6 40 -14 c83 -28 134 -56 150 -79 9 -14 32 -76 51 -139
l35 -113 -26 -53 c-28 -57 -35 -128 -17 -173 7 -17 29 -35 66 -52 31 -15 60
-27 65 -27 5 0 14 -21 21 -46 12 -43 12 -49 -13 -100 -18 -37 -34 -55 -51 -60
-54 -13 -238 57 -299 114 -15 14 -32 44 -38 66 -15 54 -2 243 19 276 15 24 15
24 -3 10 -17 -14 -17 -6 -10 195 4 116 8 221 10 235 1 14 3 58 4 98 l1 74 33
-7 c17 -4 40 -14 49 -22z m233 -668 c15 -55 31 -108 37 -118 15 -28 3 -32 -45
-13 -51 19 -77 58 -77 114 0 44 37 139 50 126 4 -5 20 -54 35 -109z m-219
-324 c33 -17 95 -39 137 -48 70 -15 77 -15 101 1 14 9 34 33 45 54 l19 37 11
-28 c6 -16 11 -32 11 -36 0 -11 71 -202 121 -323 21 -53 36 -103 33 -111 -5
-15 -46 -27 -88 -27 -30 0 -135 51 -218 107 -79 53 -89 60 -212 153 l-86 65 0
118 0 118 33 -24 c17 -14 59 -39 93 -56z m130 -368 l103 -68 1 -295 c1 -162 3
-306 5 -320 1 -14 6 -101 10 -195 3 -93 8 -172 10 -175 1 -3 6 -51 10 -108 3
-56 8 -112 10 -125 2 -12 11 -80 19 -152 9 -71 29 -206 46 -299 16 -93 29
-170 27 -171 -1 -1 -18 -6 -37 -11 -20 -5 -39 -19 -45 -31 -9 -22 -17 -24
-140 -39 l-50 -6 -38 154 c-56 231 -100 474 -123 683 -4 39 -8 72 -9 75 -1 4
-14 141 -20 220 -1 8 -5 78 -9 155 -4 77 -9 151 -12 165 -2 14 -7 187 -11 384
l-6 359 78 -66 c43 -37 124 -97 181 -134z m1056 -1250 c-1 -164 2 -356 7 -428
8 -107 8 -86 4 117 -3 136 -2 326 2 422 l7 175 100 -50 c77 -39 98 -54 94 -66
-8 -20 -126 -500 -160 -646 -13 -60 -26 -111 -29 -113 -6 -6 -107 -24 -135
-24 l-25 0 6 248 c7 246 16 385 39 599 l12 112 40 -24 41 -25 -3 -297z m-705
-685 c-2 -13 -29 -104 -60 -203 -30 -99 -68 -231 -83 -292 -16 -62 -32 -113
-35 -113 -7 0 -62 127 -90 209 -18 50 -18 59 -5 100 8 26 31 100 52 166 20 66
38 122 40 124 7 8 117 29 153 30 30 1 33 -2 28 -21z m-217 -62 c0 -6 -40 -139
-47 -156 -3 -8 -6 -18 -5 -21 0 -3 -5 -23 -12 -43 l-13 -38 -33 88 c-18 49
-33 105 -34 124 -1 35 -1 35 42 35 23 0 42 3 42 8 0 4 14 7 30 7 17 0 30 -2
30 -4z m-243 -33 c18 -54 79 -197 107 -253 26 -53 31 -71 24 -92 l-9 -27 -59
45 -58 46 -32 131 c-18 73 -34 140 -37 150 -3 13 2 17 27 17 20 0 33 -6 37
-17z"/>
<path d="M9709 8215 c-4 -5 -5 -21 -4 -35 16 -160 81 -664 105 -810 10 -63 21
-131 24 -150 66 -449 234 -1264 391 -1895 96 -383 114 -453 180 -690 36 -131
60 -214 75 -270 5 -16 15 -52 23 -80 8 -27 26 -90 40 -140 14 -49 40 -135 57
-190 18 -55 36 -116 41 -135 6 -19 14 -46 19 -60 5 -14 26 -79 47 -145 20 -66
39 -113 41 -104 2 9 -35 142 -82 295 -123 405 -222 751 -287 999 -17 66 -37
143 -45 170 -17 62 -125 489 -153 605 -110 458 -268 1228 -321 1560 -5 36 -12
76 -15 90 -9 50 -74 487 -80 540 -4 30 -8 66 -10 80 -5 34 -34 297 -37 340 -2
19 -6 31 -9 25z"/>
<path d="M4137 6533 c28 -20 44 -86 49 -206 7 -136 2 -182 -72 -617 -101 -600
-144 -946 -116 -938 4 1 23 -14 43 -34 28 -29 33 -40 26 -54 -7 -12 -6 -15 2
-9 40 24 177 284 336 635 127 280 121 267 208 468 80 183 94 233 23 81 l-42
-92 -2 112 c-2 62 1 111 6 111 5 0 29 -7 52 -15 96 -34 57 -6 -55 40 -49 20
-103 42 -120 50 -16 7 -55 23 -85 35 -30 12 -85 35 -121 52 l-66 31 -5 137
c-4 111 -9 146 -25 176 -11 21 -26 40 -34 42 -10 2 -11 1 -2 -5z m143 -404
l77 -32 2 -71 c1 -39 8 -136 17 -216 25 -224 30 -199 -51 -226 -75 -25 -215
-57 -222 -51 -2 2 12 96 31 208 43 251 44 257 52 347 4 39 9 72 12 72 3 0 40
-14 82 -31z m292 -173 c6 -108 -6 -265 -23 -281 -14 -14 -130 -67 -136 -62 -4
5 -32 261 -38 352 -4 50 -8 95 -10 102 -7 22 7 20 105 -20 l99 -40 3 -51z
m-48 -338 c-11 -36 -160 -369 -236 -528 -72 -151 -183 -356 -199 -365 -18 -12
-51 18 -70 63 -19 43 -20 55 -9 147 12 111 78 553 85 573 2 6 15 12 27 12 52
0 307 73 368 106 35 19 42 17 34 -8z"/>
<path d="M9581 6463 c-1 -22 35 -355 64 -583 8 -63 24 -196 35 -295 12 -99 23
-196 25 -215 7 -50 43 -363 50 -435 4 -33 8 -71 10 -85 2 -14 9 -72 15 -130 6
-58 22 -204 35 -325 13 -121 26 -247 29 -280 3 -33 11 -112 16 -175 6 -63 15
-153 20 -200 5 -47 12 -119 15 -160 3 -41 10 -115 15 -165 5 -49 12 -126 15
-170 4 -44 8 -98 10 -120 2 -22 7 -89 11 -150 3 -60 8 -117 9 -126 2 -8 6 -76
10 -150 4 -74 8 -149 10 -167 2 -18 6 -117 10 -220 3 -103 8 -211 11 -240 3
-28 5 -253 5 -500 0 -413 -4 -587 -16 -767 -3 -38 -7 -117 -11 -175 -3 -58 -7
-112 -9 -120 -6 -23 -15 -236 -10 -225 5 12 31 316 47 545 6 91 12 426 14 745
2 319 4 591 4 605 2 24 2 24 11 -5 10 -32 35 -150 43 -200 3 -26 47 -279 60
-355 74 -412 137 -1042 139 -1392 1 -131 6 -224 11 -221 23 15 -11 697 -49
993 -7 55 -14 108 -25 205 -18 151 -86 564 -140 850 -69 364 -75 410 -85 610
-3 66 -8 140 -10 165 -2 25 -7 83 -10 130 -7 107 -19 256 -30 380 -6 67 -10
116 -20 230 -7 92 -35 377 -41 425 -2 22 -9 83 -14 135 -5 52 -21 201 -35 330
-14 129 -33 296 -41 370 -8 74 -16 151 -19 170 -3 19 -9 78 -15 130 -12 104
-68 570 -74 610 -5 32 -14 102 -21 160 -3 25 -12 99 -20 165 -8 66 -18 145
-21 175 -12 110 -32 245 -33 223z"/>
<path d="M6315 6277 c-25 -38 -52 -158 -54 -238 -1 -22 -8 -28 -38 -37 -21 -5
-144 -44 -273 -86 -129 -42 -242 -76 -252 -76 -9 0 -33 20 -54 45 -20 25 -44
44 -53 44 -14 -1 -14 -2 0 -6 9 -2 33 -32 53 -66 21 -34 35 -51 31 -37 -4 19
1 15 20 -15 56 -86 168 -343 289 -660 73 -189 189 -480 215 -535 31 -66 16
-15 -27 92 l-37 93 27 100 c32 122 71 319 66 343 -2 9 -12 -28 -21 -83 -10
-55 -32 -153 -49 -219 l-31 -118 -23 58 c-196 505 -312 782 -368 883 l-34 59
172 56 c95 31 184 56 199 56 l27 0 1 -180 c1 -99 2 -183 3 -187 1 -5 5 -39 10
-78 9 -92 34 -161 70 -196 52 -50 56 -43 56 94 0 129 -14 184 -55 217 -18 14
-18 14 -1 -12 10 -15 14 -33 10 -39 -4 -7 -3 -9 3 -6 16 10 24 -27 30 -150 6
-118 3 -128 -35 -95 -37 32 -58 115 -68 270 l-6 83 29 -7 c15 -4 53 -15 83
-24 l55 -17 6 -54 c4 -33 5 -17 3 41 -7 175 -17 325 -22 330 -2 3 -2 -63 2
-145 l6 -151 -80 26 -80 25 2 140 3 139 65 22 c35 13 68 20 72 18 4 -3 8 -2 9
3 0 4 2 22 4 38 12 112 28 195 44 228 21 42 19 49 -4 14z"/>
<path d="M4894 6027 c0 -39 -3 -90 -7 -112 -7 -35 -6 -41 10 -42 10 -1 79 -25
153 -54 295 -113 262 -107 385 -76 33 9 62 14 66 11 4 -2 10 -24 13 -48 4 -24
29 -106 56 -182 26 -77 77 -222 113 -324 36 -102 110 -309 165 -460 126 -346
117 -314 90 -328 -22 -11 -22 -11 5 -6 26 6 27 5 27 -39 0 -31 -8 -55 -25 -81
-13 -20 -20 -36 -15 -36 5 0 17 12 27 28 9 15 23 33 31 39 13 11 7 36 -45 190
-33 98 -82 234 -108 303 -45 119 -120 333 -254 722 -58 167 -72 226 -53 214 9
-5 -13 93 -23 102 -3 3 -5 -11 -5 -30 0 -36 -4 -39 -65 -53 -5 -2 -35 -10 -66
-19 l-56 -17 -169 66 c-283 110 -252 94 -243 134 11 46 11 142 1 158 -4 7 -8
-20 -8 -60z"/>
<path d="M9996 5995 c6 -42 20 -103 104 -450 72 -295 264 -1017 339 -1270 71
-240 85 -284 88 -281 2 2 -25 107 -61 232 -170 603 -250 903 -361 1354 -36
146 -70 281 -75 300 -6 19 -17 62 -25 95 -8 36 -12 44 -9 20z"/>
<path d="M824 5668 c-41 -142 -63 -202 -142 -393 -122 -296 -325 -800 -386
-960 -13 -33 -57 -148 -99 -255 -97 -251 -197 -536 -196 -558 0 -19 9 3 107
278 103 287 525 1361 557 1418 15 27 15 27 9 -13 -4 -22 -74 -263 -156 -535
-83 -272 -154 -508 -158 -525 -4 -16 -22 -76 -39 -131 -17 -56 -44 -150 -60
-210 -16 -60 -46 -167 -66 -239 -20 -71 -43 -152 -50 -180 -7 -27 -22 -84 -33
-125 -56 -205 -112 -433 -111 -453 1 -25 17 32 84 293 87 338 286 1041 416
1470 33 107 69 227 80 265 12 39 30 97 40 130 20 64 132 442 205 694 25 84 43
155 41 157 -2 2 -21 -56 -43 -128z"/>
<path d="M5212 5329 c-94 -37 -245 -230 -555 -704 -43 -66 -82 -121 -87 -123
-5 -2 -32 14 -59 34 -50 38 -54 46 -54 107 0 12 -3 15 -9 9 -6 -6 -6 -42 0
-98 7 -66 10 -76 11 -41 l1 47 50 -37 c28 -20 50 -41 50 -45 0 -5 -7 -20 -16
-33 -18 -28 -74 -36 -74 -11 0 8 -3 17 -7 19 -5 3 -8 -6 -8 -19 0 -13 0 -24 0
-24 0 0 15 -4 33 -9 33 -10 34 -10 75 57 23 37 121 186 218 332 228 342 357
496 449 537 30 14 15 16 -18 2z"/>
<path d="M10141 5099 c-1 -8 8 -62 18 -120 11 -57 33 -189 50 -294 17 -104 36
-212 41 -240 5 -27 21 -122 35 -210 25 -157 82 -506 171 -1055 25 -151 47
-291 50 -310 3 -19 16 -98 29 -175 13 -77 45 -259 69 -405 103 -604 143 -827
145 -790 0 14 -8 77 -20 140 -31 179 -208 1227 -235 1400 -14 85 -26 164 -28
175 -2 11 -7 36 -10 55 -5 32 -71 439 -81 500 -2 14 -20 124 -40 245 -20 121
-38 231 -40 245 -14 92 -138 792 -144 820 -5 19 -9 28 -10 19z"/>
<path d="M1020 4616 c0 -3 -27 -93 -59 -199 -138 -445 -309 -1148 -395 -1622
-9 -47 -65 -390 -81 -490 -29 -190 -69 -539 -85 -750 -5 -77 -12 -171 -15
-210 -14 -183 -25 -420 -24 -515 1 -66 7 -4 15 170 21 440 31 476 33 125 2
-376 15 -595 57 -965 7 -69 14 -133 14 -142 0 -10 5 -18 10 -18 6 0 8 12 6 28
-16 92 -44 380 -66 682 -8 120 -6 878 4 950 2 19 7 76 10 125 3 50 8 131 12
180 15 233 115 824 221 1300 35 160 66 301 69 315 26 131 176 681 245 903 23
71 38 131 35 135 -3 3 -6 2 -6 -2z"/>
<path d="M2610 3689 c0 -2 -15 -47 -33 -99 l-33 -95 -41 -3 c-23 -2 -53 2 -65
9 -22 11 -22 10 -6 -6 12 -13 30 -18 62 -17 l45 2 -35 -102 c-40 -118 -88
-303 -104 -399 -11 -63 -13 -66 -56 -90 -79 -42 -330 -350 -389 -476 -55 -116
-68 -199 -61 -378 8 -178 11 -211 36 -379 11 -71 21 -163 22 -205 l2 -76 4 70
c2 39 -6 147 -18 240 -25 205 -37 432 -29 536 10 125 94 274 277 494 73 88
179 185 202 185 4 0 8 -28 9 -62 0 -35 7 -92 15 -128 l14 -65 -4 90 c-3 50 -7
124 -10 166 -8 100 14 195 121 525 47 141 83 260 80 262 -3 3 -5 3 -5 1z"/>
<path d="M8298 3403 c-52 -65 -113 -145 -135 -178 -54 -78 -151 -264 -180
-340 -12 -33 -23 -51 -23 -40 -1 11 -4 15 -6 9 -3 -7 7 -52 21 -102 31 -107
34 -166 10 -213 -16 -30 -16 -32 -2 -20 9 7 22 31 29 52 6 22 14 38 17 37 12
-6 93 -64 233 -169 134 -99 181 -142 252 -229 l28 -35 -19 33 c-47 86 -165
190 -393 347 -47 32 -87 60 -89 62 -2 1 4 12 15 24 23 26 117 73 246 124 54
22 96 40 94 42 -11 11 -323 -125 -364 -159 -16 -14 -14 -18 -38 78 l-20 82 22
64 c22 66 86 191 156 306 36 59 68 102 188 257 50 65 64 85 57 85 -3 0 -47
-53 -99 -117z"/>
<path d="M1381 2565 c-1 -5 17 -66 39 -135 36 -114 69 -266 85 -395 4 -27 10
-185 14 -350 l8 -300 -4 330 c-2 182 -5 359 -8 395 l-5 65 41 -98 c23 -54 43
-96 45 -94 2 2 -17 55 -43 118 -25 63 -74 195 -109 294 -35 99 -63 176 -63
170z"/>
<path d="M8565 2020 c36 -325 44 -408 50 -485 3 -49 8 -117 10 -150 2 -33 7
-100 10 -150 22 -373 34 -437 110 -616 36 -83 79 -181 96 -217 100 -216 112
-248 142 -387 3 -13 5 -9 6 10 1 39 -45 200 -69 241 -10 18 -50 104 -90 193
l-71 160 20 47 c25 56 23 67 -4 19 -20 -39 -30 -43 -38 -17 -3 9 -17 50 -32
91 -25 74 -35 155 -50 416 -17 306 -40 556 -66 735 -20 133 -34 198 -24 110z"/>
<path d="M1109 1209 c0 -123 -1 -339 -2 -479 -2 -278 14 -715 27 -727 5 -5 6
30 2 77 -7 96 -17 954 -10 900 2 -19 14 -132 25 -250 25 -265 90 -714 104
-729 11 -10 12 7 4 54 -78 464 -119 831 -135 1215 -4 85 -8 157 -10 159 -2 2
-4 -97 -5 -220z"/>
<path d="M1873 1008 c-102 -405 -133 -539 -133 -573 0 -49 -10 -72 -37 -84
-14 -7 -23 -14 -20 -17 3 -3 15 -1 26 6 21 11 21 10 22 -142 1 -84 4 -164 8
-178 4 -14 8 79 9 205 0 127 3 239 6 250 2 11 45 180 94 375 86 339 108 440
100 440 -2 0 -36 -127 -75 -282z"/>
<path d="M9918 1120 c-13 -288 -92 -662 -214 -1012 -19 -55 -33 -102 -31 -104
4 -5 48 90 51 111 1 5 16 53 33 105 62 191 106 371 137 565 33 205 35 208 30
40 -3 -88 -12 -239 -20 -335 -15 -185 -17 -311 -4 -185 32 294 49 778 31 915
-5 45 -8 26 -13 -100z"/>
<path d="M1422 932 c-41 -155 -82 -343 -82 -383 0 -17 19 -131 42 -253 23
-121 42 -238 42 -258 0 -20 4 -34 8 -32 12 7 10 57 -6 154 -16 98 -16 97 -52
248 -25 105 -25 118 -14 193 6 44 31 160 56 256 25 97 43 180 42 185 -2 5 -18
-45 -36 -110z"/>
</g>
</svg>
