<?xml version="1.0"?>
<svg width="1075" height="1518" xmlns="http://www.w3.org/2000/svg" preserveAspectRatio="xMidYMid meet">
 <g>
  <g fill="#000000" transform="translate(0,1518) scale(0.10000000149011612,-0.10000000149011612) ">
   <path d="m3800,15150c-69,-15 -159,-38 -200,-50c-128,-37 -384,-134 -513,-194c-43,-20 -81,-36 -84,-36c-17,0 -328,-159 -416,-212c-121,-74 -315,-205 -337,-228c-3,-3 -23,-19 -46,-35c-41,-30 -77,-60 -228,-189c-162,-137 -230,-203 -336,-326c-337,-388 -602,-799 -768,-1190c-66,-155 -78,-188 -125,-340c-57,-181 -76,-287 -84,-465c-6,-135 -5,-145 27,-270c40,-161 107,-333 209,-535c109,-217 284,-490 313,-490c6,0 7,-7 4,-16c-9,-23 -53,-301 -71,-446c-24,-199 -44,-451 -49,-623c-5,-184 -2,-158 19,155c33,484 88,855 195,1295c69,286 105,409 136,466c15,27 62,84 103,126c70,70 293,263 305,263c3,0 -4,-26 -15,-57c-11,-32 -27,-85 -35,-118c-8,-33 -29,-80 -47,-105c-28,-40 -32,-55 -38,-135c-3,-49 -20,-146 -37,-215c-26,-108 -50,-244 -37,-215c2,6 20,84 39,174c20,90 37,165 39,167c1,2 11,-70 21,-159c9,-89 33,-270 52,-402c19,-132 37,-260 40,-285c6,-42 2,-53 -66,-170c-82,-143 -236,-452 -309,-620c-28,-63 -51,-110 -51,-103c-1,64 174,1101 219,1293c6,25 10,56 10,70c-2,66 -148,-698 -194,-1015c-4,-22 -12,-80 -20,-130c-7,-49 -19,-134 -25,-188c-6,-54 -22,-128 -36,-163c-26,-70 -29,-109 -13,-167c7,-27 6,-81 -5,-200c-15,-160 -40,-501 -51,-707c-7,-133 -7,-854 0,-952c3,-40 10,-149 16,-243c8,-144 28,-356 55,-595c4,-30 23,-152 43,-270c37,-219 38,-231 17,-393c-3,-27 2,-16 13,28l18,70l11,-40c6,-22 18,-78 27,-125c39,-198 91,-419 147,-613l39,-139l-35,-71c-163,-339 -292,-810 -351,-1283c-14,-111 -29,-223 -34,-250c-39,-207 -93,-638 -115,-914c-19,-243 -39,-666 -34,-710c3,-19 6,3 7,50c1,81 15,315 26,445c2,33 7,96 10,140c6,80 11,147 20,240c7,72 46,403 50,423c1,10 11,75 21,145c9,70 18,126 19,124c1,-1 5,-96 9,-211c4,-115 9,-212 11,-216c3,-4 11,-54 19,-111c16,-112 51,-267 62,-278c4,-3 4,5 0,19c-93,358 -106,818 -36,1252c48,297 118,580 209,843c41,116 112,284 135,317c16,23 18,21 41,-52c56,-172 334,-774 390,-845c9,-11 -3,18 -25,63c-102,207 -201,488 -270,764c-56,224 -50,247 24,93c176,-370 291,-549 480,-743c39,-41 100,-96 134,-124c59,-47 63,-53 58,-82c-36,-174 -92,-539 -68,-441l7,30l137,1c76,0 141,-2 146,-5c9,-6 42,-134 36,-140c-1,-2 -25,13 -53,33c-34,25 -51,45 -54,64l-4,27l-2,-26c-1,-32 27,-59 139,-133c98,-65 358,-199 475,-244c153,-60 330,-105 545,-141c78,-13 352,-14 398,-1c44,11 92,45 92,63c0,7 -5,4 -11,-6c-16,-27 -63,-47 -131,-54c-35,-3 -61,-3 -58,0c56,66 136,147 146,147c7,0 29,-16 50,-35c36,-35 37,-36 32,-97c-8,-96 -215,-785 -241,-799c-6,-4 -21,-15 -32,-24c-15,-13 -16,-15 -3,-11c20,6 25,-5 49,-118c10,-48 28,-120 40,-160c38,-126 14,-253 -106,-556c-109,-273 -198,-702 -167,-801c6,-19 13,-68 17,-109c3,-41 8,-82 10,-90c2,-8 6,-37 10,-65c3,-27 10,-77 15,-110c34,-217 41,-263 46,-288l6,-27l1319,0l1319,0l4,22c3,13 10,102 16,198c13,198 4,279 -50,465c-16,54 -27,101 -25,103c2,2 14,-15 26,-39c47,-93 298,-481 320,-494c5,-3 -37,62 -92,145c-151,227 -229,362 -349,605c-120,243 -165,353 -204,495c-44,161 -34,252 62,540c39,120 39,120 73,51c27,-53 40,-67 127,-126c53,-36 125,-88 160,-116c34,-28 62,-48 62,-45c0,7 -119,101 -205,161c-77,54 -97,71 -114,102c-15,29 -14,33 7,26c9,-3 5,3 -10,16c-20,16 -37,53 -68,149c-24,70 -51,147 -61,172c-130,323 -199,523 -199,575c0,51 21,60 55,25c33,-34 27,-53 -7,-24c-20,17 -21,17 -9,1c16,-21 63,-47 84,-47c7,0 -9,23 -36,52c-123,131 -246,340 -361,613c-21,50 -48,113 -61,140c-12,28 -36,84 -54,125c-30,72 -69,145 -180,335c-83,141 -191,354 -282,553l-83,183l34,69c18,38 40,72 48,75c10,3 12,0 8,-10c-3,-8 -1,-14 5,-12c8,2 159,-223 159,-238c0,-9 188,-317 239,-390c76,-111 169,-232 183,-241c7,-4 8,-3 4,4c-5,8 4,12 28,12c19,0 38,5 41,10c4,7 -2,9 -19,4c-49,-12 -82,14 -159,120c-109,151 -126,176 -232,361c-108,188 -184,311 -227,366l-27,36l19,54c22,59 29,124 14,139c-5,5 -10,-6 -10,-28c-2,-58 -8,-92 -16,-92c-4,0 -5,-6 -3,-12c5,-13 -25,-75 -123,-260c-57,-107 -64,-135 -9,-38l33,60l29,-62c123,-270 220,-464 294,-591c28,-49 51,-93 51,-99c0,-5 -8,-22 -18,-36c-34,-49 -35,-57 -2,-19l33,38l24,-43c53,-93 140,-266 165,-328l26,-65l-31,-62c-17,-35 -37,-63 -44,-63c-7,0 -35,9 -62,20c-27,10 -87,28 -133,39c-219,52 -408,53 -618,1c-195,-48 -180,-48 -241,-2c-92,67 -93,70 -67,130c13,28 26,52 29,52c3,0 26,-47 50,-104c44,-104 62,-132 39,-59c-7,21 -28,72 -47,114l-34,76l51,128c28,70 49,129 47,131c-2,3 -11,-13 -20,-33c-43,-100 -107,-254 -107,-258c0,-21 -130,-269 -178,-340c-61,-90 -202,-266 -270,-338l-37,-39l-103,7c-57,4 -118,8 -135,11c-18,2 -54,6 -82,10c-221,27 -460,107 -730,245c-174,88 -257,138 -250,149c3,5 -1,35 -9,67c-8,32 -20,110 -26,173c-6,63 -20,188 -31,277c-10,89 -19,167 -19,174c0,7 -2,10 -6,7c-3,-3 2,-68 11,-144c14,-116 14,-153 4,-221c-7,-45 -15,-87 -19,-93c-5,-7 -39,-9 -112,-4l-104,7l12,71c34,188 47,252 51,259c2,4 16,-1 31,-12c38,-26 109,-61 124,-61c7,0 -20,18 -60,40c-119,65 -182,113 -282,217c-119,122 -158,170 -247,303c-57,85 -203,340 -203,355c0,2 -13,32 -29,67c-65,140 -141,356 -166,469c-18,86 -19,46 0,-67c36,-220 134,-619 200,-815c14,-40 23,-74 21,-76c-4,-4 -102,223 -165,382c-48,124 -111,337 -166,565c-41,168 -125,583 -150,740c-3,19 -10,60 -15,90c-5,30 -17,107 -25,170c-9,63 -18,126 -20,140c-16,106 -43,407 -51,570c-4,74 -8,138 -10,141c-2,3 -5,178 -8,390c-5,412 2,661 29,1004c2,33 7,94 10,135c3,41 12,149 21,239c16,163 16,164 75,305c110,259 414,856 429,840c4,-5 13,-38 19,-74c16,-86 95,-402 127,-510c46,-152 105,-302 169,-432c67,-136 109,-198 131,-198c8,0 14,2 14,4c0,2 -20,48 -44,102c-67,153 -150,422 -236,763c-41,163 -100,445 -100,477c0,31 121,235 288,488l54,81l-6,-50c-30,-271 -40,-682 -24,-945c19,-286 85,-553 194,-774c19,-37 34,-80 34,-95c0,-16 3,-21 8,-14c5,8 17,-6 36,-38c40,-72 41,-56 1,26c-19,39 -34,77 -35,85c0,8 -9,38 -19,65c-10,28 -28,106 -40,175c-40,228 -58,518 -22,328c16,-78 57,-230 77,-283c12,-30 14,-64 10,-145c-5,-110 -1,-116 12,-15l7,60l61,-126c58,-118 180,-316 190,-306c3,2 -20,40 -49,83c-97,141 -191,348 -252,560c-33,114 -91,403 -104,519l-10,90l4,-85c14,-347 48,-664 86,-803c6,-22 8,-41 5,-44c-7,-7 -26,40 -74,183c-84,247 -113,479 -113,913c0,237 3,287 22,476c40,403 157,952 291,1365c37,115 59,160 79,160c4,0 38,17 76,38c143,81 429,225 522,263c159,66 521,193 528,186c2,-2 -5,-15 -15,-28c-56,-71 -178,-297 -246,-453c-29,-66 -29,-66 -17,-66c4,0 16,21 26,48c38,99 174,362 236,454c43,63 35,59 259,122c398,112 728,170 1145,200c672,49 1251,-49 1889,-322c60,-26 110,-51 112,-57c24,-76 58,-165 61,-161c3,3 -7,37 -22,76c-15,39 -25,73 -22,76c6,7 184,-82 315,-158c106,-61 154,-76 62,-19c-63,39 -431,227 -520,266c-354,154 -691,246 -1110,301c-191,25 -722,25 -937,-1c-21,-2 -81,-9 -133,-15c-415,-45 -991,-194 -1471,-381c-57,-22 -117,-46 -134,-52c-44,-16 -641,-318 -700,-354c-27,-16 -95,-56 -150,-88c-142,-83 -215,-130 -420,-269c-193,-131 -474,-378 -530,-466c-39,-62 -76,-137 -81,-166c-10,-57 -48,-169 -51,-152c-4,15 54,314 63,330c2,3 22,75 44,159c54,203 92,273 238,431c288,311 1070,779 1765,1057c167,66 248,92 552,176c372,102 836,190 1120,211c50,4 94,9 98,11c4,3 83,9 175,14c381,20 877,-45 1252,-165c219,-69 423,-152 611,-246c121,-61 176,-92 287,-161c13,-8 53,-54 89,-104c184,-251 577,-688 783,-870c82,-73 277,-222 398,-305c51,-35 91,-69 89,-74c-2,-6 -10,-28 -18,-48c-17,-48 -47,-51 -83,-7c-30,36 -32,49 -10,90c8,17 14,33 11,35c-6,7 -23,-18 -33,-48l-9,-27l-80,77c-163,157 -347,313 -540,456c-66,50 -136,101 -155,116c-80,60 -343,231 -347,226c-8,-8 8,-27 18,-21c5,4 9,1 9,-4c0,-6 5,-11 10,-11c10,0 144,-89 270,-178c111,-79 338,-251 426,-324l90,-75l27,-119c54,-242 77,-373 111,-644c24,-184 31,-345 30,-655c-1,-245 -4,-312 -22,-430c-79,-510 -230,-937 -444,-1259c-69,-104 -64,-104 11,-1c43,59 51,66 52,45c0,-14 2,-34 4,-45c2,-11 7,-65 11,-121c8,-121 9,-116 -141,-499c-13,-33 -49,-130 -81,-215c-183,-492 -253,-677 -276,-730c-40,-91 -156,-317 -198,-385c-92,-151 -241,-314 -384,-420c-81,-59 -257,-152 -381,-199c-38,-15 -85,-34 -104,-43c-18,-8 -39,-16 -45,-18c-6,-1 -20,-5 -31,-9c-99,-38 -98,-37 -106,-24c-5,7 -9,19 -9,27c0,22 -71,149 -87,155c-9,4 -5,-6 10,-24c14,-16 28,-43 32,-60c4,-16 11,-30 17,-30c6,0 8,-7 4,-15c-3,-8 -2,-15 3,-15c19,0 61,-199 87,-410c9,-74 17,-137 19,-140c2,-3 13,-75 25,-160c52,-382 79,-551 99,-629c6,-20 12,-49 15,-66c7,-41 24,-93 25,-77c1,10 10,8 35,-7c18,-12 40,-21 47,-21c8,0 -1,9 -20,21c-19,11 -41,27 -49,36c-16,16 -75,287 -87,399c-4,32 -8,66 -10,74c-4,14 -55,345 -55,356c0,2 24,-10 53,-27c122,-72 257,-126 360,-143l37,-7l0,84c0,228 55,687 81,671c5,-3 9,4 9,15c0,24 18,69 39,96c15,18 15,19 -2,5c-43,-33 -84,-154 -103,-305c-4,-33 -9,-62 -9,-65c-1,-3 -5,-50 -9,-105c-5,-55 -10,-111 -11,-125c-2,-14 -4,-78 -4,-143l-1,-117l-27,6c-16,3 -63,17 -106,31l-79,25l6,32c5,28 48,334 61,431c6,50 35,336 35,351c0,6 12,16 28,23c48,22 196,113 247,154c72,56 200,183 249,247c91,118 194,281 229,360c9,19 24,46 35,59l19,24l31,-23c47,-35 133,-26 240,26l84,41l-6,-156c-4,-86 -9,-192 -11,-236c-3,-44 -10,-150 -15,-235c-27,-433 -41,-638 -46,-669c-5,-33 -39,-126 -70,-198c-8,-17 -14,-34 -14,-37c0,-4 -32,-72 -72,-152l-71,-147l-131,7c-71,4 -131,8 -132,9c-2,1 -4,99 -5,217c-3,281 -15,508 -45,840c-16,179 -31,253 -21,100c39,-551 44,-642 53,-937c6,-188 5,-223 -7,-224c-60,-6 -110,-5 -115,2c-3,5 -1,91 5,192c6,100 13,315 16,477c3,162 7,336 10,385c2,51 0,81 -4,70c-5,-11 -11,-173 -15,-360c-4,-187 -11,-419 -16,-515c-5,-96 -10,-192 -10,-213c0,-36 -2,-38 -27,-35l-27,3l3,125c1,69 5,136 8,150c4,17 2,22 -5,15c-22,-22 -32,-837 -11,-980c14,-103 33,-177 78,-308c40,-115 130,-321 138,-314c2,3 -1,17 -7,32c-8,22 -7,31 4,44c16,18 36,85 35,116c0,11 -7,-5 -15,-35c-8,-30 -21,-61 -29,-69c-11,-11 -17,-7 -35,30c-71,144 -144,384 -160,524c-5,50 -10,216 -10,370l0,280l157,-3c87,-2 159,-5 160,-6c9,-8 33,-155 29,-172c-6,-23 -208,-233 -266,-277l-35,-27l48,26c26,14 47,30 47,35c0,6 3,8 8,5c9,-6 112,71 175,130c26,25 47,42 47,37c0,-4 9,-55 19,-113c11,-58 27,-154 36,-213l16,-109l-46,-61c-50,-67 -120,-203 -129,-252c-6,-27 -5,-27 7,5c52,130 138,263 213,326c64,53 116,82 98,53c-3,-6 8,-4 24,5c32,17 82,22 82,9c0,-5 -10,-33 -21,-63c-33,-85 -71,-221 -65,-233c2,-7 5,-5 5,4c1,9 21,79 46,155c40,122 44,140 30,150c-14,10 -12,22 16,100c122,344 244,856 281,1174c10,92 29,161 83,305c75,201 198,658 230,855c3,19 12,73 19,120c21,125 34,231 46,360c6,63 13,140 15,170c23,249 35,823 18,833c-5,3 -9,-117 -9,-267c-2,-328 -35,-775 -79,-1051c-93,-581 -262,-1107 -515,-1602c-119,-233 -224,-396 -361,-558c-105,-125 -214,-233 -225,-222c-2,2 21,30 52,63c265,285 466,721 598,1299c88,387 137,893 137,1420c0,374 -10,568 -47,972l-15,162l60,113c182,342 294,737 349,1228c4,36 7,192 6,348c-1,155 1,282 3,282c5,0 123,-183 180,-279c98,-164 111,-188 148,-259l38,-72l-27,-113c-68,-283 -149,-544 -300,-962c-60,-166 -67,-195 -48,-195c22,0 127,218 234,485c50,124 127,359 169,510c17,64 33,114 35,113c15,-16 250,-589 310,-758c78,-217 87,-263 104,-545c12,-179 5,-1115 -9,-1345c-58,-930 -140,-1448 -353,-2230c-22,-80 -41,-152 -43,-160c-5,-25 -115,-373 -124,-395c-5,-11 -23,-60 -41,-110c-53,-149 -134,-352 -199,-494c-65,-144 -156,-320 -173,-336c-12,-12 -13,-13 31,80c139,297 314,827 412,1250c64,275 147,746 137,776c-2,7 -12,-43 -22,-112c-32,-228 -56,-319 -146,-554c-83,-217 -280,-636 -355,-755c-14,-22 -25,-42 -25,-46c0,-13 -205,-312 -263,-384c-34,-41 -91,-106 -127,-144c-67,-70 -218,-201 -224,-195c-2,2 25,35 60,73c93,99 185,216 266,336c38,58 80,116 91,130c12,14 -4,1 -35,-29c-32,-30 -56,-57 -53,-59c2,-3 -1,-14 -7,-26c-17,-32 -141,-196 -145,-192c-2,2 -5,20 -7,40c-2,35 2,41 75,103c43,37 76,69 74,72c-3,2 -24,-14 -47,-35c-115,-105 -255,-205 -390,-279c-100,-53 -93,-61 -78,80c19,169 50,325 90,451c23,70 39,129 36,131c-5,6 -60,-163 -85,-263c-19,-75 -33,-167 -62,-399c-19,-162 -53,-312 -86,-382c-17,-36 -94,-73 -244,-117c-123,-35 -268,-79 -404,-121c-200,-62 -368,-104 -503,-124c-70,-11 -114,-20 -98,-20c68,-2 251,34 449,88c189,53 292,83 597,177c95,30 243,98 262,122c10,12 7,11 -14,-2c-32,-21 -35,-12 -14,39c13,31 19,35 50,35c32,0 38,-5 57,-41c27,-54 51,-129 84,-269c15,-63 31,-128 36,-145c16,-58 -2,67 -22,147c-10,42 -19,81 -19,87c0,6 32,-5 72,-25c51,-27 75,-34 86,-27c38,24 81,223 91,424l7,136l86,94c87,94 153,177 240,300c115,163 278,464 398,734c24,55 45,102 47,104c1,2 9,-2 18,-9c9,-7 18,-10 21,-7c3,3 -3,11 -14,18c-18,12 -18,15 18,108c20,53 41,105 48,116c11,20 11,20 12,-2c0,-24 -73,-322 -127,-513c-72,-261 -212,-659 -297,-850c-66,-147 -189,-376 -211,-392c-6,-5 -6,-8 2,-8c6,0 22,17 34,38c12,20 62,98 109,172c162,251 347,664 484,1082c17,53 35,100 38,103c10,10 67,-80 97,-153c30,-73 91,-262 115,-357c73,-286 111,-634 115,-1045c2,-183 -9,-428 -23,-520c-10,-61 -14,-144 -7,-115c5,17 6,-125 3,-315c-7,-525 12,-735 129,-1460c15,-98 18,-104 14,-45c-2,39 -13,131 -25,205c-55,364 -79,544 -85,635c-3,55 -8,129 -11,165c-10,137 -2,867 13,1100c22,365 -11,916 -73,1230c-52,260 -144,538 -211,639l-43,64l50,173c164,562 293,1205 340,1694c6,63 13,129 15,145c2,17 6,64 10,105c3,41 8,93 10,115c2,22 7,99 10,170c4,72 9,141 11,155c17,107 24,991 11,1340c-5,118 -8,222 -7,230c6,45 1,184 -9,240c-5,36 -20,146 -31,245c-23,190 -66,476 -101,660c-12,61 -23,121 -25,135c-7,39 -71,342 -100,475c-14,66 -30,158 -34,205c-7,77 -13,100 -49,180l-11,25l5,-26c2,-14 -2,-86 -10,-160c-22,-193 -24,-211 -50,-344c-12,-66 -26,-139 -30,-163l-7,-42l-90,157c-102,178 -182,301 -274,419c-61,79 -63,83 -73,165c-32,245 -80,511 -120,667l-19,74l66,-63c140,-130 359,-359 403,-420c26,-36 54,-82 63,-103c16,-37 17,-38 40,-23c23,15 25,15 53,-16c32,-36 136,-181 173,-242c13,-22 27,-42 31,-45c3,-3 32,-48 63,-100c32,-52 61,-102 66,-110c31,-51 100,-179 108,-201c6,-14 13,-43 17,-65c27,-166 47,-340 60,-519c20,-287 45,-697 46,-772c1,-35 6,-63 11,-63c5,0 7,19 4,43c-3,23 -8,112 -11,197c-3,85 -8,189 -10,230c-2,41 -7,122 -10,180c-3,58 -10,144 -16,193l-9,87l64,61c150,140 311,465 390,788c49,199 68,362 69,591c1,532 -116,943 -426,1490c-108,191 -258,418 -344,520c-117,140 -165,193 -278,308c-347,356 -760,658 -1318,966c-312,172 -631,302 -933,381l-96,25l-1412,-1l-1411,-1l-125,-28zm-1246,-3027c-72,-223 -189,-701 -219,-900c-5,-31 -37,-88 -119,-210c-123,-185 -176,-268 -248,-387c-29,-49 -49,-74 -52,-65c-7,18 -94,555 -111,679c-3,25 -12,90 -21,145l-15,100l47,150c25,83 47,159 48,170c2,11 18,30 37,43c44,30 72,50 123,88c109,81 552,352 577,354c4,0 -18,-75 -47,-167zm6442,-569c69,-52 72,-57 63,-82c-5,-15 -26,-49 -45,-76l-36,-48l-49,68c-27,38 -51,76 -54,85c-5,16 31,109 42,109c4,0 39,-25 79,-56zm281,-223c206,-173 199,-164 217,-261c23,-125 45,-260 52,-321c3,-30 10,-81 15,-114c5,-33 8,-80 8,-105c-1,-40 -2,-42 -8,-15c-7,26 -98,211 -134,270c-56,93 -217,328 -276,404l-74,94l32,61c17,34 31,67 31,74c0,24 21,11 137,-87zm-56,-627c101,-463 211,-1084 234,-1319c5,-57 4,-55 -30,55c-43,135 -130,353 -221,552c-100,218 -96,202 -74,315c25,129 60,394 60,451c0,63 8,48 31,-54zm-380,9c60,-101 99,-174 99,-185c0,-7 -10,-26 -23,-41l-22,-28l-64,102l-64,103l23,43c12,24 24,43 25,43c2,0 13,-17 26,-37zm-580,-2450c1,-32 3,-73 5,-91c3,-28 1,-33 -14,-28c-9,2 -38,7 -64,11c-26,3 -50,11 -54,16c-3,6 4,39 17,74c19,54 27,65 48,68c63,10 61,11 62,-50zm-52,-124l61,-12l1,-96c1,-53 3,-174 4,-269l1,-174l-55,-37c-60,-41 -170,-99 -211,-112c-20,-6 -21,-7 -5,-8c29,-1 118,43 200,99l72,48l-4,-76c-2,-43 -6,-110 -9,-149l-6,-73l-101,-67c-161,-105 -234,-142 -292,-144c-81,-3 -94,0 -111,26c-16,25 -15,31 41,183c32,86 64,172 72,191l13,34l31,-31c44,-45 54,-40 13,5c-19,20 -34,40 -34,44c0,25 25,63 71,108c28,28 47,51 42,51c-6,0 -26,-16 -46,-35c-21,-20 -37,-32 -37,-27c0,6 18,56 41,113c23,57 55,142 71,189c16,47 33,89 38,93c11,12 48,-39 60,-84c7,-24 7,-52 1,-79c-9,-41 -57,-112 -93,-138c-10,-7 -18,-17 -18,-22c0,-18 83,67 103,105c29,55 28,140 -2,188l-22,36l63,4l63,3l-72,2c-40,1 -73,6 -73,11c0,27 45,121 56,117c6,-2 39,-10 73,-17zm47,-916c-3,-27 -8,-88 -11,-138c-17,-235 -52,-502 -90,-691c-33,-160 -117,-474 -128,-474c-2,0 0,33 4,73c4,39 10,113 13,162c13,185 17,242 21,300c2,33 7,121 11,195c3,74 8,149 9,165c2,17 4,98 4,182l1,152l56,38c31,21 68,48 83,60c14,12 27,23 29,23c2,0 1,-21 -2,-47zm-1361,-1139c-8,-77 -22,-191 -31,-254c-8,-63 -17,-133 -20,-155c-8,-60 -11,-82 -25,-171l-12,-81l-61,34c-34,19 -82,44 -109,56c-28,13 -49,30 -52,42c-3,11 -16,106 -30,210c-14,105 -33,216 -42,248c-9,32 -14,59 -12,61c2,2 58,22 123,44l119,41l-7,-317c-4,-174 -9,-327 -12,-338c-3,-12 -1,-24 4,-28c5,-3 10,28 12,77c1,45 3,93 5,107c2,14 4,133 4,266l1,241l78,30c42,17 78,30 80,28c1,-1 -4,-65 -13,-141zm1370,-111c-3,-38 -10,-86 -15,-108c-5,-22 -12,-62 -16,-90c-3,-27 -8,-52 -9,-55c-2,-3 -6,-25 -10,-50c-4,-25 -9,-48 -11,-52c-3,-4 -9,-31 -14,-60c-8,-44 -25,-122 -44,-200c-3,-9 -12,-44 -21,-76l-17,-60l-66,-1c-36,0 -68,2 -72,4c-4,2 -4,26 0,52c4,26 11,75 15,108c10,92 20,125 53,185c46,81 197,389 213,433c7,20 15,37 17,37c2,0 1,-30 -3,-67zm-337,-755c16,-35 42,-123 58,-196l28,-133l-28,-85c-24,-75 -30,-84 -52,-84c-13,0 -24,-4 -24,-10c0,-5 -6,-7 -14,-4c-8,3 -27,-1 -42,-9l-29,-15l-37,222c-21,121 -38,228 -38,236c0,8 23,43 51,78c69,84 88,84 127,0zm171,-38c-36,-116 -49,-161 -59,-197c-11,-44 -25,-57 -27,-25c-1,18 -49,210 -58,233c-4,11 11,14 73,14l79,0l-8,-25zm21,-1343c0,-52 -1,-54 -84,-147c-46,-52 -83,-98 -80,-101c2,-4 -4,-13 -14,-20c-15,-13 -16,-12 -4,3c12,15 10,19 -17,33c-29,15 -31,19 -31,73l0,57l113,76c61,42 113,77 115,78c1,0 2,-23 2,-52zm-5,-239c-3,-57 -7,-103 -8,-104c-1,0 -32,18 -69,41l-68,42l73,61c39,34 74,61 76,62c2,0 0,-46 -4,-102zm-130,-138c121,-75 118,-72 110,-120c-4,-22 -17,-71 -28,-108c-26,-79 -41,-86 -114,-49c-62,32 -91,57 -94,82c-4,26 33,245 41,245c3,0 42,-22 85,-50z"/>
   <path d="m7242,12525c3,-11 22,-74 43,-140c96,-313 205,-823 250,-1170c8,-66 17,-136 20,-155c6,-42 25,-313 25,-353l0,-27l-39,26c-45,29 -44,27 -57,279c-3,72 -10,150 -15,175c-7,37 -7,33 -3,-25c11,-164 16,-385 10,-385c-5,0 -56,26 -114,57c-59,31 -143,71 -187,89l-80,33l-18,58c-52,167 -134,413 -183,547c-78,213 -166,438 -169,434c-2,-2 19,-64 47,-138c60,-160 190,-533 224,-642c58,-187 74,-242 71,-244c-1,-2 -20,38 -41,89c-67,157 -220,474 -321,662c-42,78 -44,85 -69,280c-25,189 -63,394 -65,350c0,-11 4,-38 9,-60c8,-33 24,-135 45,-290c2,-16 9,-82 15,-145c6,-63 13,-131 16,-150c3,-19 8,-178 11,-352l6,-316l-29,-5l-29,-4l28,-2c23,-1 27,-5 23,-23c-3,-13 -8,-59 -11,-103c-6,-70 -25,-220 -41,-310c-22,-129 -100,-415 -149,-551c-20,-54 -43,-118 -52,-142c-24,-67 -28,-41 -4,30c43,132 88,347 106,503c3,28 8,73 12,100c7,60 6,665 -2,673c-3,3 -5,-127 -6,-289c0,-162 -2,-310 -4,-329c-2,-19 -6,-66 -10,-105c-13,-155 -66,-418 -115,-575c-16,-52 -27,-96 -25,-98c2,-3 -2,-11 -10,-19c-17,-16 -20,-33 -6,-33c11,0 26,39 22,59c-1,7 2,10 7,7c29,-18 174,416 242,724c13,60 47,306 55,403c6,72 8,77 29,77c37,0 121,-18 242,-51l113,-31l31,-82c29,-74 113,-422 140,-576c38,-220 50,-317 50,-414c0,-60 3,-106 7,-103c8,9 6,211 -2,282c-25,202 -142,759 -180,858c-4,9 -3,17 3,17c13,0 152,-61 262,-114c97,-47 108,-60 103,-128c-19,-281 -44,-446 -98,-641c-18,-67 -32,-124 -30,-125c2,-2 18,40 35,95c39,120 84,361 102,543c11,117 14,129 20,90c22,-139 38,-360 38,-549c0,-118 3,-211 7,-208c8,8 6,390 -3,497c-3,41 -12,135 -20,208c-8,74 -14,136 -14,138c0,2 16,-6 35,-18l35,-23l2,-210l3,-210l2,208l3,208l43,-32c23,-18 69,-56 102,-83c33,-28 49,-38 36,-24c-13,15 -59,55 -102,90l-79,63l0,70c0,149 -34,462 -75,700c-14,77 -27,156 -30,175c-11,69 92,-147 212,-439c195,-481 350,-1073 408,-1561c27,-222 15,-680 -18,-703c-20,-14 -107,-1 -135,20c-15,11 -51,64 -80,119c-29,54 -68,119 -86,144c-49,68 -49,70 -28,70c12,0 39,-28 76,-77c31,-43 64,-87 72,-98c31,-38 -18,38 -67,107c-27,37 -49,72 -49,77c0,5 13,12 29,16c16,3 36,14 43,23c11,14 11,15 -7,8c-10,-4 -37,-9 -60,-12c-39,-5 -41,-4 -125,81c-95,97 -155,143 -311,237c-153,93 -191,103 -374,103c-162,-1 -195,-7 -375,-70c-99,-34 -234,-94 -227,-101c2,-2 23,6 48,18c47,23 176,68 193,68c6,0 -23,-20 -64,-44c-109,-64 -203,-150 -309,-280c-9,-11 -10,-16 -3,-12c14,8 16,-6 3,-19c-6,-6 -17,-26 -25,-46c-14,-33 -13,-35 2,-34c9,0 69,35 132,77c241,160 357,201 570,202c123,1 142,-1 208,-26c245,-89 504,-364 621,-659c33,-84 61,-216 61,-288c0,-64 -35,-224 -59,-274l-20,-42l25,30c14,17 43,59 64,95c22,36 40,58 40,50c0,-24 50,57 70,113c12,32 19,43 19,30c1,-13 6,-23 11,-23c6,0 10,29 10,68c0,49 3,63 11,52c17,-25 -1,107 -26,186l-22,71l59,7c32,3 68,10 78,16c24,13 23,18 5,-94c-8,-49 -13,-91 -11,-94c10,-9 45,215 54,338c13,199 6,702 -13,858c-3,20 -12,107 -20,192c-14,137 -67,533 -80,600c-3,14 -17,88 -31,165c-28,151 -92,427 -125,540c-31,102 -101,297 -105,292c-3,-2 9,-42 25,-88c99,-284 198,-730 255,-1159c19,-139 30,-236 46,-390c6,-58 12,-117 14,-132c6,-58 -10,-24 -26,55c-23,112 -91,400 -123,522c-45,169 -171,538 -226,661c-10,22 -28,65 -39,95c-12,30 -66,151 -120,269c-88,191 -103,233 -134,367c-57,245 -166,627 -183,643c-3,3 -4,-4 -1,-15zm-451,-1024c78,-157 149,-311 224,-482l33,-75l-80,23c-68,19 -212,43 -268,43c-13,0 -15,27 -14,203c1,180 -6,354 -20,472l-5,40l24,-29c13,-16 60,-104 106,-195z"/>
   <path d="m4826,12172c-103,-392 -179,-823 -211,-1192c-3,-36 -10,-114 -16,-175c-6,-60 -10,-222 -10,-360c0,-295 13,-436 55,-635c8,-36 13,-66 11,-68c-6,-7 -57,135 -93,264c-62,217 -107,441 -132,654c-6,52 -12,111 -15,130c-20,176 -27,683 -12,900c8,127 30,317 52,455c20,123 19,129 -17,60c-69,-134 -309,-683 -382,-875c-20,-52 -42,-108 -49,-125c-7,-16 -26,-69 -41,-116l-29,-86l-64,-12c-36,-7 -68,-10 -70,-7c-3,2 0,28 6,57c6,28 9,54 7,56c-2,3 -10,-20 -17,-50c-6,-31 -15,-60 -18,-65c-3,-6 -71,-36 -151,-67c-186,-73 -260,-107 -337,-156c-34,-21 -65,-39 -68,-39c-9,0 -4,323 6,410c4,41 11,100 14,130c25,235 135,663 236,918c32,81 33,82 20,82c-5,0 -15,-17 -21,-37c-7,-21 -46,-116 -87,-212c-137,-320 -311,-885 -412,-1338c-51,-227 -113,-561 -130,-698c-6,-44 -13,-98 -15,-120c-34,-264 -66,-725 -50,-725c5,0 9,30 9,67c0,292 93,1003 180,1378c45,193 129,533 151,610c101,347 198,634 211,621c2,-2 -10,-59 -26,-126c-67,-264 -98,-492 -108,-787l-6,-192l-78,-61c-110,-87 -121,-105 -15,-25c49,36 90,65 91,63c2,-2 6,-52 9,-113c20,-347 77,-593 202,-881c3,-6 -25,-33 -61,-59c-37,-26 -64,-49 -61,-52c9,-10 -75,-103 -92,-103c-11,1 1,17 33,45c28,25 46,45 41,45c-4,0 -35,-23 -68,-51c-58,-51 -60,-52 -109,-46c-28,4 -64,13 -80,21c-16,8 -29,11 -29,6c0,-12 65,-58 93,-65c25,-7 25,-7 -39,-83c-36,-43 -88,-115 -116,-162c-55,-91 -72,-110 -100,-110c-13,0 -18,8 -18,25c0,14 -5,25 -11,25c-6,0 -9,-7 -6,-15c4,-8 1,-17 -5,-21c-7,-4 -7,-8 0,-13c12,-7 18,-131 8,-176l-6,-30l15,30c12,23 15,24 11,8c-2,-13 1,-26 6,-30c8,-4 9,7 5,33c-5,30 -1,52 18,92c24,51 25,52 69,52l45,0l-34,-73c-38,-83 -85,-236 -85,-276c1,-25 1,-25 20,9l19,35l1,-45c1,-76 11,-122 26,-116c9,4 14,-2 14,-17c0,-12 9,-40 19,-62l19,-40l1,35l1,35l26,-45c27,-48 94,-133 100,-128c2,2 -9,28 -24,58c-24,48 -27,69 -30,168c-3,97 0,125 22,205c50,175 148,341 288,485c138,143 257,226 381,269c73,25 96,28 207,28c115,-1 133,-3 220,-33c183,-63 426,-211 477,-289c22,-34 26,-22 9,28l-15,44l31,-35l31,-35l-33,60c-66,122 -153,227 -280,338l-55,49l65,-32c82,-41 142,-82 204,-140c31,-29 45,-37 37,-22c-19,36 -156,139 -240,181c-195,98 -465,156 -614,133c-73,-12 -187,-55 -264,-100c-29,-18 -53,-28 -53,-24c0,4 -4,1 -9,-6c-5,-9 -21,19 -49,85c-92,223 -147,490 -159,780l-6,141l59,38c77,50 269,136 385,174c51,16 96,30 100,30c4,0 -6,-37 -23,-82c-98,-264 -225,-716 -272,-973c-22,-116 -28,-157 -23,-161c3,-3 8,18 12,45c4,28 11,51 16,51c4,0 6,6 3,13c-5,14 31,191 66,321c11,43 34,128 51,189c39,149 150,489 156,483c3,-2 -2,-57 -12,-120c-30,-208 -38,-580 -16,-723c8,-51 8,-51 -23,-62l-31,-10l32,5c27,4 32,2 36,-18c4,-20 4,-20 6,5c0,15 7,27 14,27c8,0 9,3 1,8c-14,9 -24,50 -14,54c4,2 10,42 13,90c15,198 63,445 139,713c28,99 53,182 55,185c2,3 55,12 116,22l112,17l-107,-3c-60,-1 -108,0 -108,3c0,8 96,276 109,306c5,11 37,89 70,173c34,84 72,176 85,205c13,29 50,113 81,187c64,152 112,250 121,250c9,0 0,-122 -22,-305c-26,-220 -25,-860 1,-1085c3,-19 7,-57 10,-85c16,-151 63,-397 105,-560c39,-150 92,-301 136,-391c24,-49 42,-78 39,-64c-4,14 -15,61 -26,104c-47,191 -64,363 -64,661c0,180 12,493 20,518c2,7 6,46 10,87c6,73 32,300 40,350c2,14 9,57 15,95c30,197 104,554 133,645l21,65l7,-130c4,-71 9,-193 13,-270c5,-138 32,-491 41,-550c2,-16 7,-52 10,-80c6,-48 25,-183 44,-310c16,-106 71,-366 111,-520c67,-257 129,-442 224,-663l36,-84l-31,-105c-36,-125 -33,-149 4,-31c67,212 114,451 137,698c13,141 25,708 15,698c-3,-3 -8,-114 -10,-245c-5,-299 -18,-483 -51,-708c-13,-88 -45,-237 -53,-253c-6,-11 -9,-11 -18,0c-14,18 -125,303 -156,403c-91,286 -188,726 -221,995c-3,25 -12,99 -21,165c-31,248 -51,533 -61,865c-3,124 -7,226 -8,227c-1,1 -15,-46 -30,-105zm-908,-1224c-96,-306 -177,-708 -178,-886c0,-40 -4,-61 -10,-57c-16,10 -12,430 5,580c16,142 51,354 60,363c4,5 99,28 127,31c4,1 2,-14 -4,-31zm-786,-1572c-27,-29 -86,-124 -122,-196c-25,-49 -39,-64 -75,-82c-25,-12 -47,-19 -50,-16c-7,7 56,116 109,188c71,96 115,138 137,133c20,-6 20,-6 1,-27z"/>
   <path d="m6487,11337c-9,-115 -41,-367 -62,-482c-8,-44 -17,-94 -20,-112c-26,-153 -97,-440 -146,-585c-94,-281 -184,-477 -343,-743c-15,-25 -15,-27 -1,-10c32,38 128,207 185,328c108,226 186,440 244,672c27,109 91,416 100,480c3,22 15,117 28,212c12,94 26,169 30,167c4,-3 8,-22 8,-42c0,-22 4,-32 9,-26c6,5 4,44 -4,99c-7,50 -15,101 -17,115c-2,14 -7,-19 -11,-73z"/>
   <path d="m3845,9550c-97,-31 -271,-166 -334,-259c-23,-33 -41,-62 -41,-65c0,-2 14,2 31,11c39,19 84,8 111,-27c41,-56 56,-223 26,-302c-20,-53 -132,-117 -204,-118c-50,0 -65,15 -72,75c-2,25 -8,45 -12,45c-15,0 -34,-144 -34,-245c2,-272 151,-510 399,-635c222,-112 419,-80 599,97c47,46 103,121 95,126c-43,25 -42,25 -87,-32c-48,-62 -93,-100 -167,-139c-44,-23 -61,-26 -145,-26c-82,0 -107,5 -178,32c-146,55 -267,153 -322,262c-35,69 -34,76 8,119c26,27 36,44 31,53c-24,37 1,78 69,113c49,24 91,23 111,-4c16,-20 22,-22 67,-15c71,11 69,12 97,-22c14,-17 44,-36 66,-43c35,-10 46,-9 77,5c19,9 42,27 51,40c8,12 20,21 26,19c60,-18 67,-16 67,14c0,54 64,67 140,29c71,-36 87,-100 31,-121l-27,-10l53,-53c50,-50 53,-55 47,-91c-3,-26 -1,-44 9,-58c14,-19 16,-18 32,20c122,292 59,757 -140,1015c-53,69 -117,118 -211,162c-58,27 -82,32 -154,35c-47,1 -98,-2 -115,-7z"/>
   <path d="m6784,9466c-123,-40 -286,-170 -343,-275l-24,-43l45,26c51,30 86,33 128,11c41,-21 63,-101 63,-224c-1,-76 -5,-99 -20,-120c-22,-29 -161,-107 -211,-117c-46,-9 -78,15 -91,68c-8,33 -9,-3 -7,-147c4,-216 19,-295 83,-424c48,-100 170,-224 263,-268c123,-60 267,-64 406,-12c58,22 164,93 238,161l50,44l-39,36l-39,35l-49,-53c-27,-30 -82,-74 -123,-100c-156,-97 -288,-110 -423,-39c-84,45 -174,129 -225,213c-35,58 -76,166 -76,201c0,10 23,39 50,64c28,25 50,50 50,56c0,65 139,115 180,65c8,-8 21,-12 35,-8c20,5 24,1 30,-26c4,-17 26,-52 49,-76c34,-35 49,-44 77,-44c46,0 96,32 116,75c19,39 28,42 69,20c27,-14 29,-13 33,3c6,31 23,42 65,42c49,0 116,-35 133,-70c17,-34 -3,-64 -46,-68l-32,-3l40,-44c22,-24 49,-61 60,-82c11,-22 32,-48 46,-57c14,-9 34,-31 44,-48l19,-30l26,45c58,98 86,219 86,373c0,197 -54,361 -186,561c-80,121 -159,194 -261,245c-78,39 -95,43 -167,45c-46,2 -98,-3 -122,-11z"/>
   <path d="m1078,9228c-2,-125 -2,-187 8,-1068c6,-540 5,-631 -10,-750c-55,-442 -183,-1039 -311,-1450c-103,-331 -216,-646 -395,-1110c-262,-677 -371,-981 -369,-1028c0,-9 19,42 43,113c51,152 112,316 311,830c66,171 164,430 228,605c94,252 234,695 282,890c14,58 34,139 45,180c37,145 95,432 124,610c70,430 81,596 70,1050c-5,184 -9,539 -9,788c0,248 -3,452 -7,452c-5,0 -9,-51 -10,-112z"/>
   <path d="m2477,8937c-5,-76 -10,-153 -12,-170c-2,-18 -9,-144 -15,-282c-5,-137 -12,-299 -15,-360c-6,-125 -8,-622 -5,-980c2,-250 17,-559 35,-750c38,-394 83,-661 162,-965c40,-156 117,-392 163,-500c44,-106 45,-110 14,-60c-28,45 -174,353 -174,367c0,5 -13,40 -29,78c-68,168 -175,555 -225,810c-104,541 -134,891 -142,1685c-3,267 -7,490 -9,495c-7,19 -2,-850 5,-1004c23,-464 30,-545 66,-801c24,-165 74,-442 94,-520c4,-19 13,-75 20,-125c30,-251 62,-418 133,-699l35,-138l-36,5c-30,5 -33,4 -17,-5c11,-6 33,-22 50,-37l30,-26l-24,27c-14,16 -21,28 -17,28c25,0 92,-49 148,-108c83,-88 132,-186 154,-302c30,-168 35,-189 56,-216c21,-26 21,-28 5,-72c-10,-25 -15,-47 -13,-49c2,-3 7,6 12,19c4,13 51,120 104,238c105,231 134,310 127,337c-4,14 -5,13 -6,-4c-1,-31 -35,-122 -84,-226c-29,-64 -45,-86 -55,-82c-12,4 -12,2 -3,-8c9,-11 4,-30 -21,-86c-17,-39 -36,-70 -42,-68c-6,2 -19,18 -29,35c-17,29 -17,34 -1,121l18,91l28,-33l29,-32l-27,42l-26,42l17,78c36,172 186,676 206,698c8,8 14,-169 9,-262c-1,-18 2,-33 7,-33c4,0 7,57 7,128c-9,758 -6,912 23,1031c3,14 3,23 0,20c-4,-3 -14,-39 -23,-80c-14,-61 -17,-135 -17,-431l0,-358l-53,0c-61,0 -58,-6 -69,144c-19,283 -13,1112 10,1298c2,15 6,76 10,135c3,59 9,117 11,128c4,16 3,17 -4,5c-14,-22 -42,-417 -50,-700c-7,-260 2,-804 16,-932l8,-76l-29,-6c-61,-12 -63,-11 -77,67c-7,39 -14,81 -16,92c-33,176 -79,596 -90,809c-3,67 -7,135 -10,151c-2,17 -7,182 -11,368l-6,338l35,-21c53,-31 152,-45 189,-26l29,14l69,-141c65,-135 144,-262 251,-407c45,-61 106,-116 228,-206c57,-42 58,-44 43,-154c-5,-36 -12,-101 -16,-145c-3,-44 -8,-98 -10,-120c-16,-154 -23,-563 -11,-583c5,-9 -15,-12 -76,-12l-83,0l-2,98c-6,362 -8,434 -14,492c-4,36 -5,-2 -3,-85c2,-82 4,-236 5,-341l1,-192l31,8c18,4 77,11 132,14c55,4 117,10 137,15c35,8 38,8 33,-13c-3,-11 -23,-100 -45,-197c-77,-348 -86,-365 -169,-356c-28,3 -52,13 -68,30c-24,23 -25,31 -32,198c-8,170 -8,171 -9,49c0,-112 23,-364 27,-281c1,34 1,34 22,15c16,-14 36,-19 79,-19l57,0l-14,-40c-7,-22 -10,-35 -4,-30c20,22 61,163 115,395c31,135 71,304 87,375c17,72 36,157 44,190c47,208 61,265 96,400c51,198 50,195 58,195c4,0 8,6 8,13c0,6 4,21 9,31c5,13 4,17 -4,13c-6,-4 -20,-38 -33,-75c-12,-37 -23,-69 -25,-70c-7,-9 -237,114 -328,175c-159,107 -233,184 -354,368c-182,276 -288,527 -471,1115c-151,486 -202,640 -277,825c-42,104 -49,132 -54,210l-5,90l-8,-138zm75,-244c9,-9 24,-38 33,-67c9,-28 21,-60 26,-71c5,-11 15,-39 23,-62l15,-43l-47,24c-26,13 -67,26 -92,30l-45,6l40,-14c83,-28 134,-56 150,-79c9,-14 32,-76 51,-139l35,-113l-26,-53c-28,-57 -35,-128 -17,-173c7,-17 29,-35 66,-52c31,-15 60,-27 65,-27c5,0 14,-21 21,-46c12,-43 12,-49 -13,-100c-18,-37 -34,-55 -51,-60c-54,-13 -238,57 -299,114c-15,14 -32,44 -38,66c-15,54 -2,243 19,276c15,24 15,24 -3,10c-17,-14 -17,-6 -10,195c4,116 8,221 10,235c1,14 3,58 4,98l1,74l33,-7c17,-4 40,-14 49,-22zm233,-668c15,-55 31,-108 37,-118c15,-28 3,-32 -45,-13c-51,19 -77,58 -77,114c0,44 37,139 50,126c4,-5 20,-54 35,-109zm-219,-324c33,-17 95,-39 137,-48c70,-15 77,-15 101,1c14,9 34,33 45,54l19,37l11,-28c6,-16 11,-32 11,-36c0,-11 71,-202 121,-323c21,-53 36,-103 33,-111c-5,-15 -46,-27 -88,-27c-30,0 -135,51 -218,107c-79,53 -89,60 -212,153l-86,65l0,118l0,118l33,-24c17,-14 59,-39 93,-56zm130,-368l103,-68l1,-295c1,-162 3,-306 5,-320c1,-14 6,-101 10,-195c3,-93 8,-172 10,-175c1,-3 6,-51 10,-108c3,-56 8,-112 10,-125c2,-12 11,-80 19,-152c9,-71 29,-206 46,-299c16,-93 29,-170 27,-171c-1,-1 -18,-6 -37,-11c-20,-5 -39,-19 -45,-31c-9,-22 -17,-24 -140,-39l-50,-6l-38,154c-56,231 -100,474 -123,683c-4,39 -8,72 -9,75c-1,4 -14,141 -20,220c-1,8 -5,78 -9,155c-4,77 -9,151 -12,165c-2,14 -7,187 -11,384l-6,359l78,-66c43,-37 124,-97 181,-134zm1056,-1250c-1,-164 2,-356 7,-428c8,-107 8,-86 4,117c-3,136 -2,326 2,422l7,175l100,-50c77,-39 98,-54 94,-66c-8,-20 -126,-500 -160,-646c-13,-60 -26,-111 -29,-113c-6,-6 -107,-24 -135,-24l-25,0l6,248c7,246 16,385 39,599l12,112l40,-24l41,-25l-3,-297zm-705,-685c-2,-13 -29,-104 -60,-203c-30,-99 -68,-231 -83,-292c-16,-62 -32,-113 -35,-113c-7,0 -62,127 -90,209c-18,50 -18,59 -5,100c8,26 31,100 52,166c20,66 38,122 40,124c7,8 117,29 153,30c30,1 33,-2 28,-21zm-217,-62c0,-6 -40,-139 -47,-156c-3,-8 -6,-18 -5,-21c0,-3 -5,-23 -12,-43l-13,-38l-33,88c-18,49 -33,105 -34,124c-1,35 -1,35 42,35c23,0 42,3 42,8c0,4 14,7 30,7c17,0 30,-2 30,-4zm-243,-33c18,-54 79,-197 107,-253c26,-53 31,-71 24,-92l-9,-27l-59,45l-58,46l-32,131c-18,73 -34,140 -37,150c-3,13 2,17 27,17c20,0 33,-6 37,-17z"/>
   <path d="m9709,8215c-4,-5 -5,-21 -4,-35c16,-160 81,-664 105,-810c10,-63 21,-131 24,-150c66,-449 234,-1264 391,-1895c96,-383 114,-453 180,-690c36,-131 60,-214 75,-270c5,-16 15,-52 23,-80c8,-27 26,-90 40,-140c14,-49 40,-135 57,-190c18,-55 36,-116 41,-135c6,-19 14,-46 19,-60c5,-14 26,-79 47,-145c20,-66 39,-113 41,-104c2,9 -35,142 -82,295c-123,405 -222,751 -287,999c-17,66 -37,143 -45,170c-17,62 -125,489 -153,605c-110,458 -268,1228 -321,1560c-5,36 -12,76 -15,90c-9,50 -74,487 -80,540c-4,30 -8,66 -10,80c-5,34 -34,297 -37,340c-2,19 -6,31 -9,25z"/>
   <path d="m4137,6533c28,-20 44,-86 49,-206c7,-136 2,-182 -72,-617c-101,-600 -144,-946 -116,-938c4,1 23,-14 43,-34c28,-29 33,-40 26,-54c-7,-12 -6,-15 2,-9c40,24 177,284 336,635c127,280 121,267 208,468c80,183 94,233 23,81l-42,-92l-2,112c-2,62 1,111 6,111c5,0 29,-7 52,-15c96,-34 57,-6 -55,40c-49,20 -103,42 -120,50c-16,7 -55,23 -85,35c-30,12 -85,35 -121,52l-66,31l-5,137c-4,111 -9,146 -25,176c-11,21 -26,40 -34,42c-10,2 -11,1 -2,-5zm143,-404l77,-32l2,-71c1,-39 8,-136 17,-216c25,-224 30,-199 -51,-226c-75,-25 -215,-57 -222,-51c-2,2 12,96 31,208c43,251 44,257 52,347c4,39 9,72 12,72c3,0 40,-14 82,-31zm292,-173c6,-108 -6,-265 -23,-281c-14,-14 -130,-67 -136,-62c-4,5 -32,261 -38,352c-4,50 -8,95 -10,102c-7,22 7,20 105,-20l99,-40l3,-51zm-48,-338c-11,-36 -160,-369 -236,-528c-72,-151 -183,-356 -199,-365c-18,-12 -51,18 -70,63c-19,43 -20,55 -9,147c12,111 78,553 85,573c2,6 15,12 27,12c52,0 307,73 368,106c35,19 42,17 34,-8z"/>
   <path d="m9581,6463c-1,-22 35,-355 64,-583c8,-63 24,-196 35,-295c12,-99 23,-196 25,-215c7,-50 43,-363 50,-435c4,-33 8,-71 10,-85c2,-14 9,-72 15,-130c6,-58 22,-204 35,-325c13,-121 26,-247 29,-280c3,-33 11,-112 16,-175c6,-63 15,-153 20,-200c5,-47 12,-119 15,-160c3,-41 10,-115 15,-165c5,-49 12,-126 15,-170c4,-44 8,-98 10,-120c2,-22 7,-89 11,-150c3,-60 8,-117 9,-126c2,-8 6,-76 10,-150c4,-74 8,-149 10,-167c2,-18 6,-117 10,-220c3,-103 8,-211 11,-240c3,-28 5,-253 5,-500c0,-413 -4,-587 -16,-767c-3,-38 -7,-117 -11,-175c-3,-58 -7,-112 -9,-120c-6,-23 -15,-236 -10,-225c5,12 31,316 47,545c6,91 12,426 14,745c2,319 4,591 4,605c2,24 2,24 11,-5c10,-32 35,-150 43,-200c3,-26 47,-279 60,-355c74,-412 137,-1042 139,-1392c1,-131 6,-224 11,-221c23,15 -11,697 -49,993c-7,55 -14,108 -25,205c-18,151 -86,564 -140,850c-69,364 -75,410 -85,610c-3,66 -8,140 -10,165c-2,25 -7,83 -10,130c-7,107 -19,256 -30,380c-6,67 -10,116 -20,230c-7,92 -35,377 -41,425c-2,22 -9,83 -14,135c-5,52 -21,201 -35,330c-14,129 -33,296 -41,370c-8,74 -16,151 -19,170c-3,19 -9,78 -15,130c-12,104 -68,570 -74,610c-5,32 -14,102 -21,160c-3,25 -12,99 -20,165c-8,66 -18,145 -21,175c-12,110 -32,245 -33,223z"/>
   <path d="m6315,6277c-25,-38 -52,-158 -54,-238c-1,-22 -8,-28 -38,-37c-21,-5 -144,-44 -273,-86c-129,-42 -242,-76 -252,-76c-9,0 -33,20 -54,45c-20,25 -44,44 -53,44c-14,-1 -14,-2 0,-6c9,-2 33,-32 53,-66c21,-34 35,-51 31,-37c-4,19 1,15 20,-15c56,-86 168,-343 289,-660c73,-189 189,-480 215,-535c31,-66 16,-15 -27,92l-37,93l27,100c32,122 71,319 66,343c-2,9 -12,-28 -21,-83c-10,-55 -32,-153 -49,-219l-31,-118l-23,58c-196,505 -312,782 -368,883l-34,59l172,56c95,31 184,56 199,56l27,0l1,-180c1,-99 2,-183 3,-187c1,-5 5,-39 10,-78c9,-92 34,-161 70,-196c52,-50 56,-43 56,94c0,129 -14,184 -55,217c-18,14 -18,14 -1,-12c10,-15 14,-33 10,-39c-4,-7 -3,-9 3,-6c16,10 24,-27 30,-150c6,-118 3,-128 -35,-95c-37,32 -58,115 -68,270l-6,83l29,-7c15,-4 53,-15 83,-24l55,-17l6,-54c4,-33 5,-17 3,41c-7,175 -17,325 -22,330c-2,3 -2,-63 2,-145l6,-151l-80,26l-80,25l2,140l3,139l65,22c35,13 68,20 72,18c4,-3 8,-2 9,3c0,4 2,22 4,38c12,112 28,195 44,228c21,42 19,49 -4,14z"/>
   <path d="m4894,6027c0,-39 -3,-90 -7,-112c-7,-35 -6,-41 10,-42c10,-1 79,-25 153,-54c295,-113 262,-107 385,-76c33,9 62,14 66,11c4,-2 10,-24 13,-48c4,-24 29,-106 56,-182c26,-77 77,-222 113,-324c36,-102 110,-309 165,-460c126,-346 117,-314 90,-328c-22,-11 -22,-11 5,-6c26,6 27,5 27,-39c0,-31 -8,-55 -25,-81c-13,-20 -20,-36 -15,-36c5,0 17,12 27,28c9,15 23,33 31,39c13,11 7,36 -45,190c-33,98 -82,234 -108,303c-45,119 -120,333 -254,722c-58,167 -72,226 -53,214c9,-5 -13,93 -23,102c-3,3 -5,-11 -5,-30c0,-36 -4,-39 -65,-53c-5,-2 -35,-10 -66,-19l-56,-17l-169,66c-283,110 -252,94 -243,134c11,46 11,142 1,158c-4,7 -8,-20 -8,-60z"/>
   <path d="m9996,5995c6,-42 20,-103 104,-450c72,-295 264,-1017 339,-1270c71,-240 85,-284 88,-281c2,2 -25,107 -61,232c-170,603 -250,903 -361,1354c-36,146 -70,281 -75,300c-6,19 -17,62 -25,95c-8,36 -12,44 -9,20z"/>
   <path d="m824,5668c-41,-142 -63,-202 -142,-393c-122,-296 -325,-800 -386,-960c-13,-33 -57,-148 -99,-255c-97,-251 -197,-536 -196,-558c0,-19 9,3 107,278c103,287 525,1361 557,1418c15,27 15,27 9,-13c-4,-22 -74,-263 -156,-535c-83,-272 -154,-508 -158,-525c-4,-16 -22,-76 -39,-131c-17,-56 -44,-150 -60,-210c-16,-60 -46,-167 -66,-239c-20,-71 -43,-152 -50,-180c-7,-27 -22,-84 -33,-125c-56,-205 -112,-433 -111,-453c1,-25 17,32 84,293c87,338 286,1041 416,1470c33,107 69,227 80,265c12,39 30,97 40,130c20,64 132,442 205,694c25,84 43,155 41,157c-2,2 -21,-56 -43,-128z"/>
   <path d="m5212,5329c-94,-37 -245,-230 -555,-704c-43,-66 -82,-121 -87,-123c-5,-2 -32,14 -59,34c-50,38 -54,46 -54,107c0,12 -3,15 -9,9c-6,-6 -6,-42 0,-98c7,-66 10,-76 11,-41l1,47l50,-37c28,-20 50,-41 50,-45c0,-5 -7,-20 -16,-33c-18,-28 -74,-36 -74,-11c0,8 -3,17 -7,19c-5,3 -8,-6 -8,-19c0,-13 0,-24 0,-24c0,0 15,-4 33,-9c33,-10 34,-10 75,57c23,37 121,186 218,332c228,342 357,496 449,537c30,14 15,16 -18,2z"/>
   <path d="m10141,5099c-1,-8 8,-62 18,-120c11,-57 33,-189 50,-294c17,-104 36,-212 41,-240c5,-27 21,-122 35,-210c25,-157 82,-506 171,-1055c25,-151 47,-291 50,-310c3,-19 16,-98 29,-175c13,-77 45,-259 69,-405c103,-604 143,-827 145,-790c0,14 -8,77 -20,140c-31,179 -208,1227 -235,1400c-14,85 -26,164 -28,175c-2,11 -7,36 -10,55c-5,32 -71,439 -81,500c-2,14 -20,124 -40,245c-20,121 -38,231 -40,245c-14,92 -138,792 -144,820c-5,19 -9,28 -10,19z"/>
   <path d="m1020,4616c0,-3 -27,-93 -59,-199c-138,-445 -309,-1148 -395,-1622c-9,-47 -65,-390 -81,-490c-29,-190 -69,-539 -85,-750c-5,-77 -12,-171 -15,-210c-14,-183 -25,-420 -24,-515c1,-66 7,-4 15,170c21,440 31,476 33,125c2,-376 15,-595 57,-965c7,-69 14,-133 14,-142c0,-10 5,-18 10,-18c6,0 8,12 6,28c-16,92 -44,380 -66,682c-8,120 -6,878 4,950c2,19 7,76 10,125c3,50 8,131 12,180c15,233 115,824 221,1300c35,160 66,301 69,315c26,131 176,681 245,903c23,71 38,131 35,135c-3,3 -6,2 -6,-2z"/>
   <path d="m2610,3689c0,-2 -15,-47 -33,-99l-33,-95l-41,-3c-23,-2 -53,2 -65,9c-22,11 -22,10 -6,-6c12,-13 30,-18 62,-17l45,2l-35,-102c-40,-118 -88,-303 -104,-399c-11,-63 -13,-66 -56,-90c-79,-42 -330,-350 -389,-476c-55,-116 -68,-199 -61,-378c8,-178 11,-211 36,-379c11,-71 21,-163 22,-205l2,-76l4,70c2,39 -6,147 -18,240c-25,205 -37,432 -29,536c10,125 94,274 277,494c73,88 179,185 202,185c4,0 8,-28 9,-62c0,-35 7,-92 15,-128l14,-65l-4,90c-3,50 -7,124 -10,166c-8,100 14,195 121,525c47,141 83,260 80,262c-3,3 -5,3 -5,1z"/>
   <path d="m8298,3403c-52,-65 -113,-145 -135,-178c-54,-78 -151,-264 -180,-340c-12,-33 -23,-51 -23,-40c-1,11 -4,15 -6,9c-3,-7 7,-52 21,-102c31,-107 34,-166 10,-213c-16,-30 -16,-32 -2,-20c9,7 22,31 29,52c6,22 14,38 17,37c12,-6 93,-64 233,-169c134,-99 181,-142 252,-229l28,-35l-19,33c-47,86 -165,190 -393,347c-47,32 -87,60 -89,62c-2,1 4,12 15,24c23,26 117,73 246,124c54,22 96,40 94,42c-11,11 -323,-125 -364,-159c-16,-14 -14,-18 -38,78l-20,82l22,64c22,66 86,191 156,306c36,59 68,102 188,257c50,65 64,85 57,85c-3,0 -47,-53 -99,-117z"/>
   <path d="m1381,2565c-1,-5 17,-66 39,-135c36,-114 69,-266 85,-395c4,-27 10,-185 14,-350l8,-300l-4,330c-2,182 -5,359 -8,395l-5,65l41,-98c23,-54 43,-96 45,-94c2,2 -17,55 -43,118c-25,63 -74,195 -109,294c-35,99 -63,176 -63,170z"/>
   <path d="m8565,2020c36,-325 44,-408 50,-485c3,-49 8,-117 10,-150c2,-33 7,-100 10,-150c22,-373 34,-437 110,-616c36,-83 79,-181 96,-217c100,-216 112,-248 142,-387c3,-13 5,-9 6,10c1,39 -45,200 -69,241c-10,18 -50,104 -90,193l-71,160l20,47c25,56 23,67 -4,19c-20,-39 -30,-43 -38,-17c-3,9 -17,50 -32,91c-25,74 -35,155 -50,416c-17,306 -40,556 -66,735c-20,133 -34,198 -24,110z"/>
   <path d="m1109,1209c0,-123 -1,-339 -2,-479c-2,-278 14,-715 27,-727c5,-5 6,30 2,77c-7,96 -17,954 -10,900c2,-19 14,-132 25,-250c25,-265 90,-714 104,-729c11,-10 12,7 4,54c-78,464 -119,831 -135,1215c-4,85 -8,157 -10,159c-2,2 -4,-97 -5,-220z"/>
   <path d="m1873,1008c-102,-405 -133,-539 -133,-573c0,-49 -10,-72 -37,-84c-14,-7 -23,-14 -20,-17c3,-3 15,-1 26,6c21,11 21,10 22,-142c1,-84 4,-164 8,-178c4,-14 8,79 9,205c0,127 3,239 6,250c2,11 45,180 94,375c86,339 108,440 100,440c-2,0 -36,-127 -75,-282z"/>
   <path d="m9918,1120c-13,-288 -92,-662 -214,-1012c-19,-55 -33,-102 -31,-104c4,-5 48,90 51,111c1,5 16,53 33,105c62,191 106,371 137,565c33,205 35,208 30,40c-3,-88 -12,-239 -20,-335c-15,-185 -17,-311 -4,-185c32,294 49,778 31,915c-5,45 -8,26 -13,-100z"/>
   <path d="m1422,932c-41,-155 -82,-343 -82,-383c0,-17 19,-131 42,-253c23,-121 42,-238 42,-258c0,-20 4,-34 8,-32c12,7 10,57 -6,154c-16,98 -16,97 -52,248c-25,105 -25,118 -14,193c6,44 31,160 56,256c25,97 43,180 42,185c-2,5 -18,-45 -36,-110z"/>
  </g>
  <ellipse ry="24" rx="16" id="svg_1" cy="860" cx="533" opacity="0.86" stroke-width="3" stroke="#020202" fill="none"/>
 </g>
</svg>