<?xml version="1.0" standalone="no"?>
<!DOCTYPE svg PUBLIC "-//W3C//DTD SVG 20010904//EN"
 "http://www.w3.org/TR/2001/REC-SVG-20010904/DTD/svg10.dtd">
<svg version="1.0" xmlns="http://www.w3.org/2000/svg"
 width="61.8%" height="61.8%" viewBox="0 0 720.000000 224.000000"
 preserveAspectRatio="xMidYMid meet">
<metadata>
Created by Hypocrisy.
</metadata>
<g transform="translate(0.000000,224.000000) scale(0.100000,-0.100000)"
fill="#000000" stroke="none">
<path d="M1493 1982 c-76 -27 -129 -68 -179 -138 -56 -78 -85 -143 -144 -324
-47 -144 -48 -145 -81 -152 -53 -11 -379 -22 -379 -13 0 5 6 16 14 24 8 9 26
59 41 111 14 52 44 150 66 218 57 174 62 167 -125 159 -217 -9 -324 -43 -414
-130 -58 -56 -84 -108 -90 -182 -4 -52 -1 -68 23 -113 26 -50 30 -53 63 -50
24 2 41 11 56 31 l20 27 -36 68 -36 67 18 36 c45 86 134 139 264 155 28 4 63
13 79 21 15 7 27 10 27 6 0 -5 -36 -143 -80 -308 -154 -574 -212 -725 -300
-770 -48 -25 -68 -18 -120 35 -52 54 -85 63 -113 32 -22 -24 -21 -43 4 -91 37
-71 163 -97 262 -53 153 68 241 192 337 479 21 64 45 120 52 123 7 4 82 10
167 14 105 4 162 11 182 22 16 8 29 12 29 9 0 -3 -36 -132 -80 -286 -45 -155
-78 -289 -75 -299 3 -10 16 -21 28 -24 30 -8 296 -8 336 0 40 8 56 36 39 64
-12 18 -23 20 -120 20 -105 0 -123 5 -94 29 8 7 22 47 31 89 9 42 37 157 61
255 109 439 178 628 265 719 31 33 42 38 80 38 41 0 48 -4 82 -45 31 -37 44
-45 72 -45 35 0 75 30 75 57 0 24 -49 88 -82 107 -46 28 -158 32 -225 8z"/>
<path d="M5667 1939 c-22 -13 -47 -61 -47 -91 0 -13 9 -38 20 -55 16 -27 26
-33 53 -33 40 0 72 21 93 62 19 36 13 65 -20 101 -26 28 -66 35 -99 16z"/>
<path d="M5269 1551 c-53 -34 -138 -122 -203 -211 -38 -51 -46 -58 -40 -35 4
17 20 57 36 90 33 70 34 82 9 114 -16 21 -24 23 -57 18 -62 -10 -179 -75 -246
-136 -50 -47 -60 -60 -54 -79 4 -12 14 -22 21 -22 8 0 47 29 87 64 l73 64 3
-28 c3 -30 -59 -307 -122 -543 -19 -71 -32 -135 -29 -142 11 -29 129 -30 151
-2 5 7 30 98 56 202 30 118 59 212 78 248 49 92 137 180 231 231 89 49 147 98
147 126 0 26 -46 70 -73 70 -13 0 -43 -13 -68 -29z"/>
<path d="M1740 1523 c-17 -7 -110 -68 -181 -119 -39 -28 -45 -38 -41 -60 7
-38 26 -40 79 -5 36 24 57 31 94 31 45 0 50 -3 74 -37 61 -91 114 -283 136
-500 19 -186 -14 -286 -136 -409 -98 -99 -133 -111 -265 -94 -115 15 -157 8
-179 -32 -13 -23 -13 -30 3 -66 58 -129 319 -64 507 128 119 121 295 412 382
635 45 112 90 289 82 316 -4 11 -1 42 5 69 11 46 10 52 -15 94 -30 50 -61 65
-100 48 -34 -16 -39 -49 -25 -158 7 -54 10 -120 6 -157 -9 -74 -60 -233 -110
-337 l-36 -75 5 65 c6 64 -15 223 -34 265 -5 11 -20 52 -32 90 -30 93 -71 185
-110 243 -47 70 -66 81 -109 65z"/>
<path d="M2538 1506 c-98 -40 -239 -160 -222 -188 5 -7 9 -17 9 -23 0 -22 44
-15 77 13 47 41 119 92 130 92 12 0 18 27 -118 -548 -63 -266 -119 -493 -125
-505 -22 -42 -53 -68 -96 -79 -24 -6 -43 -14 -43 -18 0 -5 -2 -14 -5 -22 -13
-36 6 -39 245 -39 188 0 236 3 248 14 21 22 -4 56 -48 63 -19 3 -57 13 -85 22
-43 15 -50 21 -48 42 2 33 82 343 91 352 4 4 34 0 66 -7 143 -33 288 45 404
219 110 164 174 415 129 504 -8 15 -22 44 -32 65 -24 49 -65 71 -122 64 -68
-7 -140 -49 -247 -143 -72 -64 -96 -81 -91 -63 4 13 16 37 27 52 11 15 22 45
25 65 4 30 0 42 -21 65 -32 34 -70 35 -148 3z m442 -162 c30 -77 -13 -283 -89
-433 -46 -90 -123 -151 -188 -151 -31 0 -109 33 -135 57 -16 14 -16 17 -3 27
8 6 30 72 49 146 42 172 52 193 115 262 76 83 133 118 193 118 43 0 50 -3 58
-26z"/>
<path d="M3607 1519 c-196 -46 -364 -279 -384 -529 -7 -98 8 -163 52 -219 19
-24 35 -47 35 -52 0 -4 21 -17 47 -30 206 -100 516 140 574 445 13 70 11 148
-4 171 -7 11 -19 38 -25 61 -37 128 -150 187 -295 153z m73 -95 c46 -10 70
-68 77 -188 6 -101 -7 -198 -38 -280 -74 -199 -236 -261 -303 -116 -20 42 -22
62 -19 137 8 211 38 308 122 395 60 62 80 68 161 52z"/>
<path d="M4413 1516 c-209 -68 -407 -387 -391 -630 6 -91 53 -187 100 -207 62
-25 167 -9 273 43 71 35 185 113 190 130 4 9 -1 28 -10 42 l-17 26 -44 -31
c-108 -74 -230 -107 -278 -75 -50 32 -59 66 -46 183 18 166 71 307 138 367 34
29 102 32 170 7 80 -30 138 -26 166 12 l21 28 -22 37 c-34 59 -64 76 -141 79
-37 2 -86 -3 -109 -11z"/>
<path d="M5540 1521 c-56 -17 -132 -64 -198 -121 -66 -56 -69 -62 -59 -85 18
-37 36 -39 79 -8 79 56 138 93 138 85 0 -4 -16 -61 -36 -127 -51 -175 -103
-389 -110 -459 -5 -52 -3 -66 17 -100 22 -38 23 -38 75 -34 40 4 67 14 119 48
131 85 185 159 144 196 -16 14 -22 11 -89 -50 -39 -36 -78 -66 -85 -66 -20 0
-29 19 -16 34 6 7 18 46 26 87 9 41 42 175 75 299 33 124 60 232 60 241 0 9
-11 28 -25 43 -25 27 -63 33 -115 17z"/>
<path d="M6124 1520 c-63 -20 -127 -73 -157 -130 -25 -47 -28 -63 -24 -111 6
-70 40 -136 112 -219 100 -116 116 -178 66 -248 -38 -54 -141 -78 -201 -47
-33 17 -41 33 -28 58 12 23 3 48 -27 81 -30 33 -68 33 -100 1 -36 -35 -33 -79
10 -145 40 -63 57 -74 140 -90 74 -14 183 5 250 45 101 59 161 189 121 263 -8
15 -24 47 -35 72 -11 25 -50 79 -87 120 -108 122 -118 167 -54 235 21 22 31
25 74 23 45 -3 53 -7 73 -38 35 -55 42 -60 72 -60 32 0 43 11 59 58 9 27 8 38
-8 65 -29 49 -73 70 -154 73 -39 2 -85 -1 -102 -6z"/>
<path d="M6620 1523 c-17 -7 -110 -68 -181 -119 -39 -28 -45 -38 -41 -60 7
-38 26 -40 79 -5 36 24 57 31 94 31 45 0 50 -3 74 -37 61 -91 114 -283 136
-500 19 -186 -14 -286 -136 -409 -98 -99 -133 -111 -265 -94 -115 15 -157 8
-179 -32 -13 -23 -13 -30 3 -66 32 -70 121 -85 249 -43 144 48 274 162 400
352 184 277 312 590 333 815 6 66 4 75 -21 118 -30 50 -61 66 -100 48 -34 -16
-39 -49 -25 -158 7 -54 10 -120 6 -157 -9 -74 -60 -233 -110 -337 l-36 -75 5
65 c6 64 -15 223 -34 265 -5 11 -20 52 -32 90 -30 93 -71 185 -110 243 -47 70
-66 81 -109 65z"/>
</g>
</svg>
