<?xml version="1.0" standalone="no"?>
<!DOCTYPE svg PUBLIC "-//W3C//DTD SVG 20010904//EN"
 "http://www.w3.org/TR/2001/REC-SVG-20010904/DTD/svg10.dtd">
<svg version="1.0" xmlns="http://www.w3.org/2000/svg"
 width="61.8%" height="61.8%" viewBox="0 0 602.000000 224.000000"
 preserveAspectRatio="xMidYMid meet">
<metadata>
Created by potrace Hypocrisy.
</metadata>
<g transform="translate(0.000000,224.000000) scale(0.100000,-0.100000)"
fill="#000000" stroke="none">
<path d="M6005 2207 c-3 -7 -6 -498 -8 -1092 l-2 -1080 -2987 -5 c-2371 -4
-2990 -8 -3000 -17 -10 -10 590 -13 3000 -13 l3012 0 0 1110 c0 611 -2 1110
-5 1110 -3 0 -8 -6 -10 -13z"/>
<path d="M1279 2123 c-71 -44 -170 -252 -265 -559 l-38 -122 -84 -7 c-83 -7
-303 1 -362 14 l-30 6 75 185 c90 222 148 391 143 421 -2 12 -16 31 -31 43
l-29 21 -31 -36 c-46 -53 -77 -65 -272 -109 -177 -40 -235 -61 -269 -99 -18
-20 -19 -27 -8 -77 16 -78 57 -164 78 -164 14 0 15 8 9 56 -11 93 25 124 240
199 69 25 143 53 165 64 l38 18 -44 -130 c-25 -71 -68 -188 -96 -258 l-51
-129 -33 0 c-45 0 -83 -19 -90 -45 -3 -13 5 -48 19 -81 l25 -58 -20 -51 c-11
-27 -31 -69 -45 -93 l-25 -43 -34 38 c-28 32 -35 35 -44 23 -5 -8 -10 -32 -10
-53 0 -20 -13 -67 -30 -104 -16 -36 -30 -72 -30 -79 0 -17 71 -54 104 -54 19
0 33 11 51 38 24 37 141 286 184 394 21 52 27 58 60 65 44 10 437 11 446 1 3
-3 -5 -62 -19 -130 -30 -145 -41 -246 -32 -282 8 -31 89 -77 106 -60 6 6 17
36 25 68 9 33 33 102 55 154 41 97 47 122 31 122 -15 0 -40 -29 -63 -74 -12
-22 -23 -36 -25 -29 -6 17 74 321 124 472 74 221 148 376 204 427 12 11 42 21
72 24 28 3 52 11 55 18 5 15 -112 72 -148 72 -14 0 -37 -8 -51 -17z"/>
<path d="M4673 1855 c-71 -64 -72 -65 -50 -80 35 -25 88 -19 141 16 56 37 73
64 55 85 -11 14 -63 45 -71 43 -2 0 -35 -29 -75 -64z"/>
<path d="M2303 1815 c-52 -36 -127 -201 -221 -480 -139 -416 -230 -806 -249
-1067 l-6 -88 38 -35 c41 -36 63 -44 70 -23 2 7 11 99 20 205 41 508 182 866
451 1141 73 75 96 93 115 90 22 -3 24 -8 27 -73 7 -152 -75 -401 -160 -481
-27 -26 -36 -29 -94 -27 -81 2 -85 -15 -11 -57 127 -73 179 -45 271 151 59
124 96 254 102 359 5 73 3 89 -14 116 -25 39 -128 97 -158 89 -30 -7 -187
-175 -263 -281 -69 -97 -70 -91 -5 69 97 239 150 307 239 307 59 0 39 28 -52
74 -61 30 -71 31 -100 11z"/>
<path d="M4261 1583 c-62 -84 -131 -200 -193 -323 -26 -52 -48 -89 -48 -82 0
21 89 282 117 339 14 30 23 56 22 57 -13 11 -71 36 -83 36 -8 0 -34 -28 -57
-62 -24 -35 -58 -83 -76 -107 -24 -32 -30 -48 -23 -55 8 -8 25 5 60 44 l49 55
-39 -115 c-47 -139 -110 -375 -110 -412 0 -22 8 -32 41 -48 23 -12 46 -19 53
-17 7 3 32 61 56 129 53 152 122 293 206 420 94 141 104 142 84 12 l-14 -87
30 -23 c16 -13 34 -24 41 -24 20 0 45 106 47 198 l1 87 -33 10 c-17 6 -37 16
-44 23 -22 22 -38 12 -87 -55z"/>
<path d="M5128 1634 c-16 -8 -28 -18 -29 -22 -1 -4 -2 -25 -3 -47 -2 -22 -6
-64 -10 -92 -9 -59 -6 -61 49 -39 27 12 36 23 46 58 6 24 12 68 13 98 1 48 -2
55 -19 57 -11 2 -32 -4 -47 -13z"/>
<path d="M1326 1565 c-88 -116 -87 -135 3 -64 29 23 55 39 58 36 8 -8 -14
-180 -38 -298 -25 -129 -54 -221 -80 -253 l-21 -26 32 -40 c17 -22 39 -40 47
-40 55 0 210 171 374 412 80 118 79 126 13 -143 -145 -585 -327 -890 -544
-916 -66 -8 -137 17 -229 78 -72 49 -101 56 -101 23 0 -38 154 -151 254 -186
263 -91 482 174 663 801 55 193 143 565 143 608 0 26 -7 37 -37 58 -48 32 -61
32 -69 -2 -14 -63 -27 -95 -80 -184 -73 -124 -181 -274 -251 -349 -30 -33 -57
-59 -58 -58 -2 2 10 55 26 118 30 120 79 392 79 440 0 54 -7 60 -70 60 l-58 0
-56 -75z"/>
<path d="M2913 1596 c-94 -107 -217 -452 -198 -556 16 -87 76 -133 198 -152
94 -14 119 -5 187 69 80 88 153 262 180 436 15 93 5 139 -41 192 -36 41 -53
43 -119 14 l-48 -21 -42 31 c-24 17 -51 31 -61 31 -9 0 -35 -20 -56 -44z m270
-129 c-7 -217 -140 -494 -254 -528 -124 -38 -144 155 -42 410 35 88 75 152 91
146 6 -2 47 9 90 25 114 43 118 42 115 -53z"/>
<path d="M5306 1565 c-88 -116 -87 -135 3 -64 29 23 55 39 58 36 8 -8 -14
-180 -38 -298 -25 -129 -54 -221 -80 -253 l-21 -26 32 -40 c17 -22 39 -40 47
-40 55 0 210 171 374 412 80 118 79 126 13 -143 -145 -585 -327 -890 -544
-916 -66 -8 -137 17 -229 78 -72 49 -101 56 -101 23 0 -38 154 -151 254 -186
263 -91 482 174 663 801 55 193 143 565 143 608 0 26 -7 37 -37 58 -48 32 -61
32 -69 -2 -14 -63 -27 -95 -80 -184 -73 -124 -181 -274 -251 -349 -30 -33 -57
-59 -58 -58 -2 2 10 55 26 118 30 120 79 392 79 440 0 54 -7 60 -70 60 l-58 0
-56 -75z"/>
<path d="M3546 1593 c-70 -72 -183 -341 -202 -480 -18 -140 51 -214 214 -229
l71 -7 31 34 c60 65 140 219 114 219 -14 0 -26 -12 -82 -77 -61 -71 -133 -123
-172 -123 -16 0 -36 11 -51 26 -22 23 -24 33 -23 117 1 71 7 111 28 177 76
233 170 348 241 296 15 -11 17 -22 12 -65 -3 -28 -13 -67 -22 -85 -9 -19 -14
-40 -10 -46 11 -18 63 -40 79 -34 21 8 46 93 53 181 8 96 0 105 -86 102 -46
-2 -76 2 -98 14 -45 24 -56 22 -97 -20z"/>
<path d="M4553 1588 c-92 -100 -112 -165 -25 -84 29 27 55 46 59 42 20 -20
-69 -368 -132 -517 -20 -46 -39 -90 -42 -97 -5 -12 52 -42 81 -42 8 0 24 21
36 47 12 26 48 91 80 145 33 53 60 101 60 107 0 12 -20 15 -20 4 -1 -5 -16
-26 -35 -48 l-35 -40 20 60 c41 119 101 355 98 382 -2 22 -13 33 -48 50 -59
29 -61 29 -97 -9z"/>
<path d="M5013 1605 c-70 -21 -129 -61 -147 -100 -21 -44 -13 -91 39 -225 44
-117 61 -197 48 -235 -16 -49 -48 -63 -171 -78 -62 -8 -118 -19 -124 -25 -23
-23 11 -39 105 -52 106 -14 139 -6 164 38 9 16 32 37 52 48 47 25 81 77 81
124 0 20 -20 107 -45 194 -25 87 -45 172 -45 188 0 30 39 78 85 104 35 21 5
34 -42 19z"/>
</g>
</svg>
