<?xml version="1.0" standalone="no"?>
<!DOCTYPE svg PUBLIC "-//W3C//DTD SVG 20010904//EN"
 "http://www.w3.org/TR/2001/REC-SVG-20010904/DTD/svg10.dtd">
<svg version="1.0" xmlns="http://www.w3.org/2000/svg"
 width="61.8%" height="61.8%" viewBox="0 0 720.000000 224.000000"
 preserveAspectRatio="xMidYMid meet">
<metadata>
Created by Hypocrisy.
</metadata>
<g transform="translate(0.000000,224.000000) scale(0.100000,-0.100000)"
fill="#000000" stroke="none">
<path d="M1046 1785 c-11 -8 -29 -15 -40 -15 -52 0 -128 -83 -166 -180 -7 -19
-22 -50 -33 -68 -25 -43 -69 -201 -61 -225 13 -40 -10 -47 -160 -47 -105 1
-146 4 -160 15 -18 13 -17 21 24 212 23 109 44 206 46 216 6 21 -13 22 -36 2
-25 -23 -244 -33 -268 -13 -19 17 -65 31 -56 17 8 -13 -10 -11 -25 4 -10 10
-10 7 -2 -16 31 -82 65 -102 164 -94 l69 4 -7 -25 c-24 -94 -53 -262 -49 -279
8 -28 -13 -39 -77 -46 -31 -3 -70 -12 -87 -21 -34 -18 -107 -84 -100 -91 2 -2
28 4 57 15 70 27 171 38 171 19 0 -8 -23 -130 -51 -271 -29 -141 -49 -264 -46
-272 8 -20 41 -20 100 0 42 14 46 18 41 42 -4 21 55 338 91 490 5 22 8 22 166
22 l161 0 -6 -27 c-3 -16 -9 -75 -12 -133 -8 -121 10 -212 51 -266 68 -89 255
-82 300 12 24 51 18 58 -20 25 -48 -42 -81 -41 -132 7 -55 50 -67 97 -59 232
8 139 11 150 47 150 57 0 98 26 120 75 25 56 18 68 -19 32 -34 -32 -71 -41
-95 -23 -18 14 -17 17 2 98 37 155 109 317 178 397 28 33 31 41 16 41 -10 0
-27 -7 -37 -15z"/>
<path d="M5684 1670 c-42 -45 -134 -95 -194 -105 -41 -7 -41 -7 -38 -48 2 -32
8 -43 22 -45 22 -5 144 77 186 124 29 33 75 114 66 114 -3 0 -22 -18 -42 -40z"/>
<path d="M2287 1560 c-50 -40 -233 -55 -269 -23 -14 13 -21 14 -30 5 -9 -9
-16 -8 -29 4 -17 15 -17 14 -6 -21 6 -20 24 -48 41 -62 28 -23 36 -25 98 -20
66 6 68 5 63 -16 -27 -120 -197 -1014 -202 -1061 -8 -92 22 -113 118 -85 34
11 37 14 27 32 -14 28 -6 123 27 295 24 122 30 142 44 136 98 -42 192 -43 294
-4 79 30 185 130 226 211 93 187 54 391 -90 462 -34 18 -56 23 -67 18 -10 -5
-44 -14 -76 -20 -33 -6 -78 -23 -100 -37 -22 -15 -51 -28 -63 -30 -19 -2 -22
2 -18 19 15 63 43 212 41 215 -2 1 -15 -7 -29 -18z m234 -243 c19 -12 45 -43
59 -67 21 -38 25 -58 25 -125 0 -200 -44 -289 -170 -346 -43 -20 -120 -25
-130 -9 -3 5 -25 18 -48 28 -23 11 -51 29 -62 41 -19 22 -19 23 14 194 19 95
38 182 42 195 10 25 84 81 132 99 52 19 101 15 138 -10z"/>
<path d="M3258 1452 c-30 -18 -34 -32 -18 -62 11 -21 7 -24 -80 -35 -95 -12
-211 -89 -262 -174 -11 -20 -31 -46 -42 -59 -18 -21 -21 -36 -21 -120 0 -111
18 -162 83 -227 101 -102 284 -112 424 -23 61 38 142 127 174 189 30 61 54
150 54 206 0 24 2 43 5 43 2 0 30 -7 62 -15 31 -8 77 -15 100 -15 24 0 43 -2
43 -4 0 -2 -7 -33 -16 -68 -58 -223 70 -418 273 -418 150 0 360 151 531 379
34 46 62 82 62 79 0 -2 -16 -83 -35 -178 -19 -95 -35 -185 -35 -200 0 -34 29
-60 66 -59 53 1 66 12 80 68 29 112 164 345 262 452 81 88 144 110 185 65 l23
-25 32 26 c34 26 62 71 62 98 0 26 -49 70 -63 56 -6 -6 -20 -11 -31 -11 -83 0
-241 -149 -356 -335 -23 -38 -50 -77 -60 -85 -9 -8 -22 -24 -28 -35 -11 -19
-12 -18 -7 5 69 326 73 355 52 383 -11 17 -14 17 -45 1 -18 -9 -48 -14 -66
-12 l-32 4 13 -39 13 -38 -61 -92 c-178 -265 -343 -410 -483 -424 -40 -4 -55
-2 -65 11 -7 9 -19 16 -27 16 -22 0 -83 60 -107 104 -18 34 -22 57 -22 136 0
86 3 102 31 161 60 125 147 196 232 186 57 -6 83 -32 89 -90 5 -45 6 -45 34
-35 16 5 42 23 59 38 39 37 40 77 3 112 -31 28 -90 51 -97 39 -3 -4 -37 -11
-77 -14 -91 -8 -181 -49 -253 -117 -30 -28 -69 -55 -87 -60 -50 -15 -125 -12
-138 4 -7 8 -28 17 -48 21 -59 11 -111 42 -171 104 -55 55 -134 102 -169 100
-10 0 -30 -8 -45 -17z m96 -171 c54 -25 64 -34 70 -61 9 -47 7 -110 -4 -171
-6 -30 -12 -69 -15 -86 -9 -70 -78 -163 -147 -197 -53 -26 -112 -34 -123 -16
-3 5 -25 18 -49 29 -80 35 -123 120 -113 225 10 103 62 198 140 254 85 60 149
66 241 23z"/>
<path d="M6089 1435 c-20 -13 -57 -48 -83 -79 -45 -52 -47 -57 -44 -108 3 -52
0 -58 -57 -139 -79 -112 -258 -292 -316 -318 -60 -28 -79 -26 -117 8 -41 38
-41 60 -1 239 17 75 33 166 36 202 5 58 3 67 -16 85 -19 16 -24 17 -31 5 -6
-10 -26 -15 -59 -15 -45 0 -48 -1 -39 -19 14 -25 5 -109 -26 -271 -32 -159
-32 -189 -3 -245 33 -65 66 -85 140 -85 97 0 160 36 287 164 58 58 132 145
165 194 53 79 75 102 75 79 0 -4 25 -50 55 -101 30 -51 55 -97 55 -101 0 -5
-37 -28 -81 -52 -92 -49 -197 -134 -198 -161 -3 -60 77 -117 162 -117 58 0
141 31 189 70 20 17 49 55 64 86 22 45 26 64 21 107 -3 29 -8 59 -11 67 -4 10
16 29 65 60 39 25 107 78 150 119 44 40 81 72 83 70 2 -2 15 -27 30 -56 43
-86 76 -181 107 -311 l30 -124 -51 -62 c-86 -106 -192 -173 -286 -183 -42 -5
-58 -2 -73 11 -16 15 -19 15 -31 1 -7 -9 -19 -14 -27 -11 -9 4 -13 -4 -13 -29
0 -81 102 -97 217 -36 161 86 353 303 523 591 120 203 193 372 177 413 -3 9
-18 24 -32 33 -22 14 -31 15 -46 5 -11 -6 -24 -9 -29 -6 -6 4 -10 -5 -10 -18
0 -13 -12 -69 -26 -123 -14 -55 -27 -108 -29 -119 -13 -80 -140 -325 -169
-325 -8 0 -18 23 -26 57 -18 83 -98 318 -131 390 -16 33 -40 68 -53 77 -22 14
-27 14 -65 -4 -22 -11 -50 -20 -61 -20 -21 0 -20 -2 9 -42 17 -23 31 -50 31
-59 0 -38 -261 -248 -293 -236 -7 3 -41 59 -75 125 l-62 119 50 50 c44 44 50
55 50 91 0 33 -5 44 -29 61 -35 25 -28 25 -72 -4z m50 -632 c-2 -91 -9 -107
-52 -133 -43 -27 -72 -25 -113 6 -44 34 -43 58 5 104 36 35 136 99 154 100 4
0 7 -35 6 -77z"/>
<path d="M1895 1419 c-4 -6 -13 -8 -21 -5 -10 4 -14 -2 -14 -18 0 -13 -12 -68
-26 -122 -14 -55 -27 -108 -29 -119 -13 -80 -140 -325 -169 -325 -8 0 -18 23
-26 57 -18 83 -98 318 -131 390 -16 33 -40 68 -53 77 -22 14 -27 14 -65 -4
-22 -11 -50 -20 -61 -20 -20 0 -19 -3 13 -47 80 -110 153 -284 198 -471 l30
-124 -51 -62 c-86 -106 -192 -173 -286 -183 -42 -5 -58 -2 -73 11 -16 15 -19
15 -31 1 -7 -9 -19 -14 -27 -11 -9 4 -13 -4 -13 -29 0 -81 102 -97 217 -36
159 85 352 302 519 583 112 189 184 347 184 404 0 38 -68 81 -85 53z"/>
</g>
</svg>
